<svg width="50" height="50" viewBox="0 0 50 50" fill="none" xmlns="http://www.w3.org/2000/svg">
<g clip-path="url(#clip0_2208_24601)">
<g filter="url(#filter0_d_2208_24601)">
<path d="M13.4882 47.1449C10.7939 47.0223 9.33025 46.5739 8.35674 46.1942C7.06681 45.692 6.14717 45.0942 5.17904 44.1274C4.21092 43.1606 3.61174 42.241 3.11219 40.951C2.73249 39.9775 2.28411 38.5139 2.16158 35.8196C2.02693 32.9072 2 32.0333 2 24.6546C2 17.2758 2.02962 16.4033 2.16023 13.4882C2.28276 10.7939 2.73383 9.33294 3.11085 8.35674C3.61309 7.06681 4.21227 6.14717 5.1777 5.1777C6.14447 4.21092 7.06412 3.61039 8.3554 3.11085C9.3289 2.73114 10.7925 2.28276 13.4868 2.16023C16.4006 2.02693 17.2758 2 24.6519 2C32.0306 2 32.9031 2.02962 35.8182 2.16023C38.5126 2.28276 39.9735 2.73383 40.9497 3.11085C42.2396 3.61039 43.1593 4.21092 44.1274 5.1777C45.0955 6.14447 45.692 7.06547 46.1942 8.3554C46.5739 9.3289 47.0223 10.7925 47.1449 13.4868C47.2782 16.402 47.3051 17.2745 47.3051 24.6532C47.3051 32.0292 47.2782 32.9045 47.1449 35.8196C47.0223 38.5139 46.5713 39.9775 46.1942 40.951C45.692 42.241 45.0942 43.1606 44.1274 44.1274C43.1606 45.0942 42.2396 45.692 40.9497 46.1942C39.9762 46.5739 38.5126 47.0223 35.8182 47.1449C32.9058 47.2782 32.0306 47.3051 24.6519 47.3051C17.2758 47.3051 16.4006 47.2795 13.4882 47.1449" fill="url(#paint0_radial_2208_24601)"/>
<path d="M13.4882 47.1449C10.7939 47.0223 9.33025 46.5739 8.35674 46.1942C7.06681 45.692 6.14717 45.0942 5.17904 44.1274C4.21092 43.1606 3.61174 42.241 3.11219 40.951C2.73249 39.9775 2.28411 38.5139 2.16158 35.8196C2.02693 32.9072 2 32.0333 2 24.6546C2 17.2758 2.02962 16.4033 2.16023 13.4882C2.28276 10.7939 2.73383 9.33294 3.11085 8.35674C3.61309 7.06681 4.21227 6.14717 5.1777 5.1777C6.14447 4.21092 7.06412 3.61039 8.3554 3.11085C9.3289 2.73114 10.7925 2.28276 13.4868 2.16023C16.4006 2.02693 17.2758 2 24.6519 2C32.0306 2 32.9031 2.02962 35.8182 2.16023C38.5126 2.28276 39.9735 2.73383 40.9497 3.11085C42.2396 3.61039 43.1593 4.21092 44.1274 5.1777C45.0955 6.14447 45.692 7.06547 46.1942 8.3554C46.5739 9.3289 47.0223 10.7925 47.1449 13.4868C47.2782 16.402 47.3051 17.2745 47.3051 24.6532C47.3051 32.0292 47.2782 32.9045 47.1449 35.8196C47.0223 38.5139 46.5713 39.9775 46.1942 40.951C45.692 42.241 45.0942 43.1606 44.1274 44.1274C43.1606 45.0942 42.2396 45.692 40.9497 46.1942C39.9762 46.5739 38.5126 47.0223 35.8182 47.1449C32.9058 47.2782 32.0306 47.3051 24.6519 47.3051C17.2758 47.3051 16.4006 47.2795 13.4882 47.1449" fill="url(#paint1_radial_2208_24601)"/>
<path d="M19.0888 24.749C19.0888 21.6506 21.5998 19.1382 24.6982 19.1382C27.7966 19.1382 30.309 21.6506 30.309 24.749C30.309 27.8474 27.7966 30.3598 24.6982 30.3598C21.5998 30.3598 19.0888 27.8474 19.0888 24.749V24.749ZM16.0557 24.749C16.0557 29.5223 19.9249 33.3915 24.6982 33.3915C29.4715 33.3915 33.3407 29.5223 33.3407 24.749C33.3407 19.9757 29.4715 16.1065 24.6982 16.1065C19.9249 16.1065 16.0558 19.9754 16.0558 24.749H16.0557ZM31.6633 15.7638C31.6631 16.1632 31.7814 16.5538 32.0032 16.886C32.225 17.2182 32.5404 17.4772 32.9094 17.6303C33.2784 17.7833 33.6844 17.8234 34.0763 17.7457C34.4681 17.6679 34.828 17.4757 35.1106 17.1933C35.3932 16.911 35.5857 16.5512 35.6638 16.1594C35.7419 15.7677 35.702 15.3615 35.5493 14.9924C35.3966 14.6233 35.1378 14.3078 34.8058 14.0857C34.4737 13.8636 34.0833 13.745 33.6838 13.7449H33.683C33.1476 13.7451 32.6341 13.9579 32.2554 14.3364C31.8767 14.715 31.6638 15.2283 31.6633 15.7638V15.7638ZM17.8985 38.4492C16.2575 38.3744 15.3656 38.1011 14.7729 37.8702C13.9871 37.5643 13.4264 37.1999 12.8369 36.6112C12.2474 36.0225 11.8825 35.4624 11.578 34.6766C11.3469 34.0841 11.0736 33.192 10.999 31.551C10.9174 29.7769 10.9011 29.2439 10.9011 24.7493C10.9011 20.2546 10.9187 19.7231 10.999 17.9475C11.0737 16.3065 11.3491 15.4161 11.578 14.8219C11.8839 14.0361 12.2482 13.4754 12.8369 12.8859C13.4256 12.2965 13.9857 11.9316 14.7729 11.627C15.3653 11.3959 16.2575 11.1226 17.8985 11.048C19.6726 10.9664 20.2055 10.9501 24.6982 10.9501C29.1909 10.9501 29.7244 10.9675 31.5 11.0483C33.1409 11.123 34.0313 11.3984 34.6256 11.6273C35.4114 11.9318 35.972 12.2975 36.5615 12.8862C37.151 13.4749 37.5146 14.0364 37.8205 14.8222C38.0515 15.4146 38.3249 16.3068 38.3995 17.9478C38.4811 19.7234 38.4974 20.2548 38.4974 24.7495C38.4974 29.2442 38.4811 29.7757 38.3995 31.5513C38.3247 33.1922 38.0501 34.0841 37.8205 34.6769C37.5146 35.4627 37.1502 36.0233 36.5615 36.6115C35.9728 37.1996 35.4114 37.5645 34.6256 37.8704C34.0331 38.1015 33.1409 38.3748 31.5 38.4494C29.7258 38.531 29.1929 38.5473 24.6982 38.5473C20.2035 38.5473 19.6721 38.531 17.8985 38.4494V38.4492ZM17.7591 8.0199C15.9674 8.10149 14.743 8.3856 13.6738 8.80166C12.5671 9.23133 11.629 9.80776 10.6922 10.743C9.75549 11.6783 9.18055 12.6165 8.75088 13.7245C8.33482 14.7945 8.05071 16.0181 7.96912 17.8099C7.88617 19.6045 7.86719 20.1782 7.86719 24.749C7.86719 29.3198 7.88617 29.8935 7.96912 31.6881C8.05071 33.48 8.33482 34.7035 8.75088 35.7734C9.18055 36.8801 9.75563 37.8201 10.6922 38.755C11.6289 39.6898 12.5657 40.2654 13.6738 40.6963C14.745 41.1124 15.9674 41.3965 17.7591 41.4781C19.5547 41.5597 20.1274 41.58 24.6982 41.58C29.269 41.58 29.8427 41.561 31.6373 41.4781C33.4292 41.3965 34.6528 41.1124 35.7227 40.6963C36.8293 40.2654 37.7674 39.6902 38.7042 38.755C39.6409 37.8197 40.2147 36.8801 40.6455 35.7734C41.0616 34.7035 41.3471 33.4798 41.4273 31.6881C41.5089 29.8921 41.5279 29.3198 41.5279 24.749C41.5279 20.1782 41.5089 19.6045 41.4273 17.8099C41.3457 16.018 41.0616 14.7938 40.6455 13.7245C40.2147 12.6179 39.6394 11.6798 38.7042 10.743C37.7689 9.80627 36.8293 9.23133 35.724 8.80166C34.6527 8.3856 33.4291 8.10015 31.6387 8.0199C29.8438 7.9379 29.2703 7.91797 24.7002 7.91797C20.1301 7.91797 19.5553 7.93695 17.7598 8.0199" fill="white"/>
</g>
</g>
<defs>
<filter id="filter0_d_2208_24601" x="-7.73465" y="-7.73465" width="64.774" height="64.774" filterUnits="userSpaceOnUse" color-interpolation-filters="sRGB">
<feFlood flood-opacity="0" result="BackgroundImageFix"/>
<feColorMatrix in="SourceAlpha" type="matrix" values="0 0 0 0 0 0 0 0 0 0 0 0 0 0 0 0 0 0 127 0" result="hardAlpha"/>
<feOffset/>
<feGaussianBlur stdDeviation="4.86733"/>
<feComposite in2="hardAlpha" operator="out"/>
<feColorMatrix type="matrix" values="0 0 0 0 0 0 0 0 0 0 0 0 0 0 0 0 0 0 0.05 0"/>
<feBlend mode="normal" in2="BackgroundImageFix" result="effect1_dropShadow_2208_24601"/>
<feBlend mode="normal" in="SourceGraphic" in2="effect1_dropShadow_2208_24601" result="shape"/>
</filter>
<radialGradient id="paint0_radial_2208_24601" cx="0" cy="0" r="1" gradientUnits="userSpaceOnUse" gradientTransform="translate(4.9321 46.3126) scale(57.5206)">
<stop offset="0.09" stop-color="#FA8F21"/>
<stop offset="0.78" stop-color="#D82D7E"/>
</radialGradient>
<radialGradient id="paint1_radial_2208_24601" cx="0" cy="0" r="1" gradientUnits="userSpaceOnUse" gradientTransform="translate(33.3812 44.8579) scale(50.6187)">
<stop offset="0.64" stop-color="#8C3AAA" stop-opacity="0"/>
<stop offset="1" stop-color="#8C3AAA"/>
</radialGradient>
<clipPath id="clip0_2208_24601">
<rect width="49.3051" height="49.3051" rx="14.5144" fill="white"/>
</clipPath>
</defs>
</svg>
