<svg width="51" height="50" viewBox="0 0 51 50" fill="none" xmlns="http://www.w3.org/2000/svg">
<g clip-path="url(#clip0_2208_24621)">
<g filter="url(#filter0_d_2208_24621)">
<path d="M39.7988 20.4182C40.48 20.4182 41.0285 20.9832 41.0285 21.6691C41.0285 22.353 40.48 22.918 39.7988 22.918H36.3732V25.1481H39.7988C40.48 25.1481 41.0285 25.7091 41.0285 26.397C41.0285 27.0789 40.48 27.6439 39.7988 27.6439H35.1415C34.4681 27.6439 33.9177 27.0789 33.9177 26.397V16.9391C33.9177 16.2552 34.4681 15.6902 35.1474 15.6902H39.8047C40.48 15.6902 41.0285 16.2552 41.0285 16.9391C41.0285 17.631 40.48 18.188 39.7988 18.188H36.3732V20.4182H39.7988V20.4182ZM32.2742 26.397C32.2742 26.9322 31.9346 27.408 31.431 27.5785C31.306 27.6201 31.1714 27.64 31.0425 27.64C30.6307 27.64 30.2793 27.4615 30.0471 27.1444L25.2785 20.5688V26.397C25.2785 27.0789 24.7339 27.6439 24.0469 27.6439C23.3715 27.6439 22.825 27.0789 22.825 26.397V16.9391C22.825 16.4039 23.1626 15.9281 23.6643 15.7596C23.7814 15.714 23.9298 15.6942 24.043 15.6942C24.4236 15.6942 24.7749 15.9004 25.0092 16.1977L29.8148 22.799V16.9391C29.8148 16.2552 30.3652 15.6902 31.0445 15.6902C31.7179 15.6902 32.2742 16.2552 32.2742 16.9391V26.397V26.397ZM21.0682 26.397C21.0682 27.0789 20.5178 27.6439 19.8366 27.6439C19.1632 27.6439 18.6127 27.0789 18.6127 26.397V16.9391C18.6127 16.2552 19.1632 15.6902 19.8424 15.6902C20.5178 15.6902 21.0682 16.2552 21.0682 16.9391V26.397V26.397ZM16.2548 27.6439H11.5976C10.9241 27.6439 10.3679 27.0789 10.3679 26.397V16.9391C10.3679 16.2552 10.9241 15.6902 11.5976 15.6902C12.2768 15.6902 12.8273 16.2552 12.8273 16.9391V25.1481H16.2548C16.9341 25.1481 17.4826 25.7091 17.4826 26.397C17.4826 27.0789 16.9321 27.6439 16.2548 27.6439V27.6439ZM48.8459 21.3122C48.8459 10.6649 38.3349 2 25.423 2C12.5111 2 2 10.6649 2 21.3122C2 30.8494 10.3347 38.8403 21.5875 40.3588C22.3507 40.5214 23.3891 40.8703 23.6526 41.5284C23.8868 42.1251 23.8068 43.0469 23.7268 43.6694L23.4066 45.6914C23.3188 46.2881 22.9382 48.0425 25.4542 46.97C27.9741 45.9015 38.9536 38.8859 43.8725 33.143C47.2376 29.3983 48.8459 25.5624 48.8459 21.3122Z" fill="#00C300"/>
</g>
</g>
<defs>
<filter id="filter0_d_2208_24621" x="-5.90088" y="-5.90088" width="62.6475" height="61.1113" filterUnits="userSpaceOnUse" color-interpolation-filters="sRGB">
<feFlood flood-opacity="0" result="BackgroundImageFix"/>
<feColorMatrix in="SourceAlpha" type="matrix" values="0 0 0 0 0 0 0 0 0 0 0 0 0 0 0 0 0 0 127 0" result="hardAlpha"/>
<feOffset/>
<feGaussianBlur stdDeviation="3.95044"/>
<feComposite in2="hardAlpha" operator="out"/>
<feColorMatrix type="matrix" values="0 0 0 0 0 0 0 0 0 0 0 0 0 0 0 0 0 0 0.05 0"/>
<feBlend mode="normal" in2="BackgroundImageFix" result="effect1_dropShadow_2208_24621"/>
<feBlend mode="normal" in="SourceGraphic" in2="effect1_dropShadow_2208_24621" result="shape"/>
</filter>
<clipPath id="clip0_2208_24621">
<rect width="50.8459" height="49.31" rx="14.4615" fill="white"/>
</clipPath>
</defs>
</svg>
