<svg width="50" height="50" viewBox="0 0 50 50" fill="none" xmlns="http://www.w3.org/2000/svg">
<g clip-path="url(#clip0_2208_24606)">
<g filter="url(#filter0_d_2208_24606)">
<path d="M25.0395 2.00006C19.0493 2.02802 13.3141 4.42721 9.0883 8.67281C4.86251 12.9184 2.49017 18.6648 2.49023 24.655C2.49023 30.6635 4.87709 36.4259 9.12572 40.6745C13.3744 44.9231 19.1367 47.31 25.1452 47.31C31.1537 47.31 36.916 44.9231 41.1647 40.6745C45.4133 36.4259 47.8002 30.6635 47.8002 24.655C47.8002 18.6466 45.4133 12.8842 41.1647 8.63555C36.916 4.38692 31.1537 2.00006 25.1452 2.00006C25.11 1.99998 25.0747 1.99998 25.0395 2.00006V2.00006ZM34.4073 15.6384C34.5961 15.6346 35.0133 15.6818 35.2852 15.9027C35.4658 16.0595 35.581 16.2785 35.608 16.5162C35.6382 16.6918 35.676 17.0939 35.6458 17.4073C35.306 20.9906 33.8296 29.6825 33.0782 33.6944C32.761 35.3935 32.1361 35.9617 31.5301 36.0165C30.2161 36.1392 29.2174 35.1481 27.9431 34.3136C25.9495 33.0053 24.8224 32.1916 22.8873 30.9154C20.6501 29.4428 22.1 28.631 23.3743 27.3094C23.7085 26.9621 29.5044 21.6891 29.6177 21.2115C29.6309 21.1511 29.6441 20.9283 29.5119 20.8112C29.3798 20.6942 29.1834 20.7338 29.0419 20.7659C28.8417 20.8112 25.6568 22.9182 19.4871 27.081C18.5809 27.704 17.7635 28.0061 17.0291 27.9872C16.221 27.9721 14.6654 27.5322 13.5081 27.1565C12.0884 26.694 10.9613 26.4504 11.0595 25.667C11.1104 25.2592 11.673 24.8419 12.7454 24.4153C19.3493 21.5381 23.7519 19.6407 25.957 18.7251C32.2475 16.1084 33.5559 15.6535 34.4073 15.6384V15.6384Z" fill="#26A5E4"/>
</g>
</g>
<defs>
<filter id="filter0_d_2208_24606" x="-5.26535" y="-5.75559" width="60.8217" height="60.8207" filterUnits="userSpaceOnUse" color-interpolation-filters="sRGB">
<feFlood flood-opacity="0" result="BackgroundImageFix"/>
<feColorMatrix in="SourceAlpha" type="matrix" values="0 0 0 0 0 0 0 0 0 0 0 0 0 0 0 0 0 0 127 0" result="hardAlpha"/>
<feOffset/>
<feGaussianBlur stdDeviation="3.87779"/>
<feComposite in2="hardAlpha" operator="out"/>
<feColorMatrix type="matrix" values="0 0 0 0 0 0 0 0 0 0 0 0 0 0 0 0 0 0 0.05 0"/>
<feBlend mode="normal" in2="BackgroundImageFix" result="effect1_dropShadow_2208_24606"/>
<feBlend mode="normal" in="SourceGraphic" in2="effect1_dropShadow_2208_24606" result="shape"/>
</filter>
<clipPath id="clip0_2208_24606">
<rect x="0.490234" width="49.3099" height="49.31" rx="14.5327" fill="white"/>
</clipPath>
</defs>
</svg>
