<svg width="51" height="50" viewBox="0 0 51 50" fill="none" xmlns="http://www.w3.org/2000/svg">
<g clip-path="url(#clip0_2208_24617)">
<g filter="url(#filter0_d_2208_24617)">
<path d="M48.1736 36.1018C48.1736 36.3499 48.166 36.8879 48.1511 37.3035C48.1146 38.3204 48.034 39.6326 47.9121 40.2304C47.7289 41.1289 47.4523 41.9769 47.0917 42.6828C46.665 43.5178 46.1208 44.2657 45.4741 44.9112C44.8288 45.5554 44.0816 46.0975 43.2479 46.5225C42.5383 46.8841 41.685 47.1608 40.7814 47.3432C40.1895 47.4627 38.8871 47.5418 37.8767 47.5777C37.4607 47.5926 36.9226 47.6 36.6754 47.6L14.3654 47.5965C14.1173 47.5965 13.5793 47.5888 13.1637 47.5739C12.1468 47.5375 10.8346 47.4569 10.2367 47.335C9.33828 47.1517 8.49022 46.8752 7.7844 46.5146C6.94939 46.0879 6.20149 45.5437 5.55599 44.897C4.91176 44.2517 4.36966 43.5045 3.94476 42.6708C3.58309 41.9612 3.30638 41.1079 3.12395 40.2043C3.00448 39.6124 2.92542 38.31 2.88944 37.2996C2.87467 36.8836 2.86719 36.3455 2.86719 36.0984L2.87073 13.7882C2.87073 13.5402 2.87829 13.0022 2.8932 12.5866C2.92971 11.5697 3.01028 10.2575 3.13218 9.65963C3.3154 8.76117 3.59194 7.91311 3.95259 7.20725C4.37926 6.37228 4.92353 5.62434 5.57019 4.97883C6.21547 4.33465 6.9627 3.79251 7.79644 3.36757C8.50601 3.00599 9.35939 2.72927 10.2629 2.54684C10.8548 2.42733 12.1572 2.34827 13.1676 2.31234C13.5836 2.29752 14.1218 2.29004 14.3689 2.29004L36.679 2.29362C36.9271 2.29362 37.4651 2.30119 37.8807 2.3161C38.8976 2.3526 40.2097 2.43318 40.8076 2.55507C41.7061 2.7383 42.5541 3.01484 43.26 3.37549C44.095 3.80215 44.8429 4.34642 45.4884 4.99308C46.1325 5.63837 46.6747 6.38555 47.0996 7.21933C47.4613 7.9289 47.738 8.78223 47.9204 9.68578C48.0399 10.2777 48.1189 11.58 48.1549 12.5905C48.1697 13.0065 48.1772 13.5446 48.1772 13.7918L48.1736 36.1018Z" fill="#25EC48"/>
<path d="M37.5241 13.0086C34.4565 9.93846 30.377 8.24684 26.0305 8.24512C17.075 8.24512 9.7863 15.531 9.78272 24.4866C9.78157 27.3493 10.5297 30.1437 11.9515 32.6068L9.64648 41.0237L18.2597 38.765C20.6329 40.059 23.3047 40.7409 26.0241 40.742H26.0308C34.9854 40.742 42.2748 33.4552 42.2784 24.4996C42.2801 20.1596 40.5917 16.0787 37.5241 13.0086ZM26.0308 37.9988H26.0252C23.602 37.9979 21.2253 37.3471 19.1518 36.1171L18.6587 35.8245L13.5475 37.1649L14.9118 32.1831L14.5906 31.6723C13.2388 29.5229 12.5248 27.0385 12.5259 24.4877C12.5288 17.0442 18.587 10.9884 26.036 10.9884C29.643 10.9897 33.0337 12.3959 35.5834 14.9476C38.1331 17.4993 39.5364 20.8913 39.5351 24.4985C39.5322 31.9426 33.4741 37.9988 26.0308 37.9988ZM33.4382 27.8879C33.0322 27.6848 31.0363 26.7029 30.6641 26.5675C30.292 26.432 30.0214 26.3643 29.7507 26.7707C29.4801 27.1769 28.7021 28.0911 28.4652 28.3619C28.2284 28.6328 27.9916 28.6667 27.5856 28.4635C27.1796 28.2604 25.8715 27.8318 24.3209 26.4492C23.114 25.3732 22.2992 24.044 22.0624 23.6376C21.8256 23.2313 22.0372 23.0117 22.2405 22.8094C22.4231 22.6275 22.6464 22.3353 22.8494 22.0984C23.0524 21.8614 23.1201 21.692 23.2554 21.4212C23.3907 21.1503 23.323 20.9133 23.2215 20.7102C23.1201 20.507 22.3081 18.5094 21.9698 17.6968C21.6403 16.9055 21.3055 17.0125 21.0563 17.0001C20.8198 16.9883 20.5489 16.9859 20.2783 16.9859C20.0077 16.9859 19.5678 17.0874 19.1957 17.4937C18.8236 17.9 17.7748 18.8819 17.7748 20.8795C17.7748 22.877 19.2295 24.8069 19.4325 25.0778C19.6355 25.3486 22.2952 29.448 26.3677 31.2059C27.3363 31.6241 28.0925 31.8738 28.6821 32.0609C29.6546 32.3697 30.5397 32.3261 31.2392 32.2217C32.0192 32.1052 33.6411 31.2399 33.9795 30.2919C34.3178 29.3438 34.3178 28.5313 34.2163 28.362C34.1148 28.1927 33.8442 28.0911 33.4382 27.8879Z" fill="white"/>
</g>
</g>
<defs>
<filter id="filter0_d_2208_24617" x="-6.83199" y="-7.40913" width="64.7089" height="64.7079" filterUnits="userSpaceOnUse" color-interpolation-filters="sRGB">
<feFlood flood-opacity="0" result="BackgroundImageFix"/>
<feColorMatrix in="SourceAlpha" type="matrix" values="0 0 0 0 0 0 0 0 0 0 0 0 0 0 0 0 0 0 127 0" result="hardAlpha"/>
<feOffset/>
<feGaussianBlur stdDeviation="4.84959"/>
<feComposite in2="hardAlpha" operator="out"/>
<feColorMatrix type="matrix" values="0 0 0 0 0 0 0 0 0 0 0 0 0 0 0 0 0 0 0.05 0"/>
<feBlend mode="normal" in2="BackgroundImageFix" result="effect1_dropShadow_2208_24617"/>
<feBlend mode="normal" in="SourceGraphic" in2="effect1_dropShadow_2208_24617" result="shape"/>
</filter>
<clipPath id="clip0_2208_24617">
<rect x="0.867188" y="0.290039" width="49.31" height="49.31" rx="14.4615" fill="white"/>
</clipPath>
</defs>
</svg>
