<svg width="164" height="36" viewBox="0 0 164 36" fill="none" xmlns="http://www.w3.org/2000/svg">
<path d="M0.552734 13.2218H15.4848H24.5527V4.23535L0.552734 13.2218Z" fill="#FF9D28"/>
<path d="M24.5527 4.23529V35.9999L35.9011 0L24.5527 4.23529Z" fill="#68C5ED"/>
<path d="M24.5522 13.2217H15.4844L24.5522 35.9728V13.2217Z" fill="#044D80"/>
<path d="M0.552734 13.2217L17.8197 19.0588L15.4848 13.2217H0.552734Z" fill="#E54747"/>
<path d="M55.5566 27.611C55.4208 27.7468 55.2036 27.9097 54.905 28.0997C54.6063 28.2897 54.1991 28.5069 53.7104 28.697C53.2217 28.887 52.6244 29.0771 51.8914 29.2128C51.1855 29.3486 50.3711 29.43 49.448 29.43C47.6833 29.43 46.1358 29.1314 44.8326 28.5884C43.5294 28.0183 42.4706 27.2309 41.629 26.1992C40.7874 25.1676 40.1629 23.973 39.7828 22.5884C39.3756 21.2038 39.1855 19.6563 39.1855 18.0002C39.1855 16.3441 39.4027 14.7966 39.8371 13.3848C40.2715 11.973 40.896 10.7513 41.7647 9.71964C42.6064 8.68796 43.6923 7.87349 44.9683 7.30335C46.2444 6.73322 47.7647 6.43457 49.5023 6.43457C50.3439 6.43457 51.1312 6.51601 51.81 6.65176C52.4887 6.81466 53.1131 6.97755 53.629 7.19475C54.1448 7.41194 54.5792 7.62914 54.905 7.84634C55.2579 8.06353 55.5023 8.28072 55.6652 8.41646C55.8552 8.57936 56.0453 8.79656 56.181 9.0409C56.3167 9.28525 56.3982 9.55674 56.3982 9.82823C56.3982 10.2626 56.2353 10.697 55.9095 11.1314C55.5837 11.5658 55.2308 11.973 54.8235 12.3531C54.552 12.0816 54.2534 11.8101 53.9276 11.5386C53.6018 11.2671 53.2217 11.0228 52.8145 10.8056C52.4072 10.5884 51.9457 10.4255 51.4299 10.2898C50.914 10.154 50.3439 10.0726 49.6923 10.0726C48.5792 10.0726 47.629 10.2898 46.8688 10.7513C46.1086 11.2128 45.5113 11.783 45.0498 12.516C44.5883 13.249 44.2625 14.0635 44.0724 14.9866C43.8824 15.9097 43.7738 16.8599 43.7738 17.8373C43.7738 18.8689 43.8824 19.8463 44.0724 20.7965C44.2625 21.7468 44.6154 22.5612 45.1041 23.2943C45.5928 24.0273 46.2172 24.5974 47.0045 25.0318C47.7919 25.4662 48.7421 25.6834 49.9095 25.6834C50.5339 25.6834 51.0769 25.602 51.5928 25.4662C52.1086 25.3033 52.5701 25.1133 52.9502 24.8961C53.3575 24.6789 53.6833 24.4345 53.9819 24.2174C54.2805 23.973 54.5249 23.7558 54.7149 23.5929C54.8507 23.7558 54.9864 23.9459 55.1765 24.163C55.3665 24.3802 55.5294 24.6246 55.6652 24.8418C55.8281 25.0861 55.9367 25.3305 56.0724 25.5748C56.181 25.8192 56.2353 26.0364 56.2353 26.2264C56.2353 26.525 56.181 26.7422 56.0724 26.9594C55.9638 27.1495 55.7738 27.3667 55.5566 27.611ZM72.4977 25.0861C72.4977 26.8237 72.7421 28.0997 73.2579 28.887C72.8507 29.0499 72.4977 29.1585 72.1448 29.2128C71.7918 29.2671 71.4389 29.3214 71.0588 29.3214C70.2715 29.3214 69.6742 29.1585 69.267 28.8599C68.8597 28.5612 68.5882 28.0997 68.4796 27.5296C67.9909 28.0454 67.3665 28.4798 66.552 28.8327C65.7647 29.1857 64.7873 29.3486 63.6471 29.3486C63.0498 29.3486 62.4525 29.2671 61.8552 29.1042C61.2579 28.9413 60.7149 28.6698 60.2262 28.2897C59.7376 27.9097 59.3575 27.421 59.0317 26.7965C58.733 26.1721 58.5701 25.4119 58.5701 24.516C58.5701 23.4029 58.8416 22.4798 59.3846 21.7739C59.9276 21.068 60.6063 20.525 61.4208 20.1178C62.2353 19.7106 63.1312 19.4391 64.0543 19.2762C65.0045 19.1133 65.8733 19.0318 66.6606 18.9775C66.9321 18.9504 67.1765 18.9504 67.4479 18.9504H68.1538V18.3531C68.1538 17.5115 67.9366 16.9142 67.4751 16.5341C67.0136 16.1812 66.2805 15.9911 65.276 15.9911C64.3258 15.9911 63.4842 16.154 62.7511 16.4527C62.0181 16.7513 61.2851 17.1042 60.5792 17.5115C60.2805 17.1314 60.009 16.7242 59.8462 16.2626C59.6561 15.8011 59.5747 15.4753 59.5747 15.2581C59.5747 14.9594 59.7376 14.6608 60.0905 14.3622C60.4434 14.0635 60.905 13.8192 61.5023 13.5748C62.0995 13.3305 62.7783 13.1676 63.5656 13.0047C64.3258 12.869 65.1403 12.7875 66.009 12.7875C67.2036 12.7875 68.2081 12.8961 69.0226 13.1404C69.8371 13.3848 70.5158 13.7649 71.0317 14.2536C71.5475 14.7694 71.9276 15.3938 72.1448 16.154C72.362 16.9142 72.4706 17.8101 72.4706 18.8146L72.4977 25.0861ZM68.2624 21.2581H67.8009C67.638 21.2581 67.5022 21.2581 67.3393 21.2852C66.7964 21.3395 66.2534 21.3938 65.7104 21.4753C65.1674 21.5567 64.6787 21.7196 64.2715 21.9368C63.8642 22.154 63.5113 22.4526 63.2398 22.8056C62.9683 23.1585 62.8326 23.6201 62.8326 24.163C62.8326 24.7875 62.9955 25.3033 63.3484 25.7377C63.7013 26.1721 64.2986 26.3893 65.1403 26.3893C65.5475 26.3893 65.9547 26.335 66.3348 26.2264C66.7149 26.1178 67.0407 25.9821 67.3393 25.792C67.638 25.602 67.8552 25.4119 68.0181 25.2219C68.181 25.0047 68.2624 24.8146 68.2624 24.6517V21.2581ZM80.7239 14.7423C81.0769 14.335 81.6199 13.9006 82.3801 13.4662C83.1402 13.0318 84.0633 12.8147 85.2036 12.8147C86.0181 12.8147 86.8054 12.9504 87.5384 13.2219C88.2714 13.4934 88.923 13.9549 89.4932 14.5522C90.0633 15.1766 90.5248 15.9911 90.8506 16.9956C91.2036 18.0002 91.3665 19.249 91.3665 20.7422C91.3665 22.4527 91.1764 23.8916 90.7692 25.0047C90.3619 26.1178 89.8733 27.0137 89.2488 27.6382C88.6244 28.2897 87.9185 28.7513 87.1583 29.0228C86.3981 29.2943 85.6108 29.43 84.8506 29.43C84.2262 29.43 83.6561 29.3486 83.1945 29.2128C82.733 29.0771 82.3258 28.9142 82 28.7241C81.6742 28.5612 81.4298 28.3712 81.2398 28.2083C81.0769 28.0454 80.9411 27.9097 80.914 27.8554V36.0001H76.4072V13.3033C76.5158 13.2762 76.6516 13.249 76.8144 13.249C76.9502 13.2219 77.1131 13.2219 77.276 13.1947C77.466 13.1947 77.6561 13.1676 77.9004 13.1676C78.6334 13.1676 79.2579 13.2762 79.7737 13.5205C80.2624 13.7649 80.5882 14.1721 80.7239 14.7423ZM86.6968 20.8508C86.6968 20.1993 86.6425 19.5748 86.5339 19.0047C86.4253 18.4346 86.2353 17.9459 85.9909 17.5115C85.7466 17.1042 85.3936 16.7785 84.9592 16.5341C84.5248 16.2898 84.009 16.1812 83.3846 16.1812C82.4615 16.1812 81.8099 16.3712 81.457 16.697C81.104 17.0499 80.914 17.43 80.914 17.8644V24.8961C81.0769 25.0861 81.4027 25.2762 81.8642 25.5205C82.3258 25.7649 82.8416 25.8735 83.4389 25.8735C84.552 25.8735 85.3665 25.4391 85.9095 24.5431C86.4253 23.6744 86.6968 22.4527 86.6968 20.8508ZM94.8416 26.5522C94.6787 26.1178 94.5972 25.6563 94.5429 25.1676C94.4886 24.6789 94.4886 24.1902 94.4886 23.7015V8.36217C94.6515 8.33502 94.8144 8.30787 94.9773 8.30787C95.1402 8.28072 95.3031 8.28072 95.466 8.25358C95.6289 8.25358 95.8189 8.22642 95.9818 8.22642C96.3348 8.22642 96.6877 8.25357 97.0407 8.33502C97.3936 8.38932 97.7194 8.52507 97.9909 8.74226C98.2895 8.9323 98.5067 9.2038 98.6968 9.55674C98.8597 9.90968 98.9683 10.3441 98.9683 10.8871V13.249H103.611V16.5884H98.9954V23.6472C98.9954 25.1947 99.6198 25.9549 100.869 25.9549C101.167 25.9549 101.466 25.9006 101.737 25.8192C102.009 25.7106 102.253 25.602 102.471 25.4934C102.688 25.3848 102.878 25.249 103.041 25.1133C103.204 24.9775 103.312 24.8689 103.394 24.8146C103.719 25.3033 103.991 25.7106 104.154 26.0635C104.317 26.4164 104.425 26.7422 104.425 27.068C104.425 27.3667 104.317 27.6382 104.072 27.9097C103.828 28.1811 103.502 28.4526 103.095 28.6698C102.688 28.9142 102.172 29.1042 101.575 29.24C100.977 29.3757 100.326 29.4572 99.6198 29.4572C98.2624 29.4572 97.1764 29.1857 96.4162 28.6698C95.7104 28.0997 95.1674 27.421 94.8416 26.5522ZM115.013 26.1178C115.556 26.1178 116.045 26.0635 116.48 25.9278C116.887 25.8192 117.267 25.6563 117.62 25.4934C117.946 25.3305 118.244 25.1133 118.489 24.9232C118.733 24.706 118.95 24.516 119.14 24.3531C119.412 24.6789 119.683 25.1133 119.982 25.6291C120.28 26.145 120.416 26.5793 120.416 26.9051C120.416 27.3938 120.145 27.8282 119.602 28.2354C119.14 28.5884 118.489 28.887 117.62 29.1585C116.778 29.4029 115.774 29.5386 114.633 29.5386C113.602 29.5386 112.57 29.4029 111.566 29.1314C110.561 28.8599 109.665 28.3983 108.878 27.7468C108.09 27.0952 107.466 26.1993 106.977 25.0861C106.489 23.973 106.244 22.5612 106.244 20.878C106.244 19.4934 106.461 18.2988 106.896 17.2943C107.33 16.2898 107.9 15.4481 108.606 14.7965C109.312 14.145 110.127 13.6563 111.05 13.3305C111.946 13.0318 112.869 12.869 113.819 12.869C115.041 12.869 116.099 13.059 116.968 13.4391C117.837 13.8192 118.516 14.335 119.059 14.9866C119.602 15.6382 119.982 16.3712 120.226 17.2128C120.47 18.0545 120.579 18.9232 120.579 19.8463V20.3079C120.579 20.4979 120.579 20.6608 120.552 20.878C120.552 21.068 120.525 21.2581 120.525 21.4481C120.525 21.6382 120.498 21.7739 120.47 21.8825H110.724C110.805 23.1042 111.185 24.1088 111.864 24.9232C112.516 25.7106 113.575 26.1178 115.013 26.1178ZM116.534 19.4119C116.534 18.3531 116.317 17.4843 115.909 16.8327C115.502 16.1812 114.769 15.8282 113.71 15.8282C112.787 15.8282 112.081 16.154 111.538 16.7784C110.995 17.4029 110.724 18.2717 110.724 19.4119H116.534ZM128.425 14.8237C128.561 14.6337 128.724 14.4165 128.941 14.1721C129.158 13.9278 129.43 13.7106 129.756 13.5205C130.081 13.3305 130.434 13.1676 130.814 13.0318C131.194 12.8961 131.602 12.8418 132.063 12.8418C132.335 12.8418 132.606 12.8689 132.905 12.8961C133.204 12.9504 133.475 13.0318 133.719 13.1404C133.964 13.249 134.181 13.4119 134.344 13.6291C134.507 13.8463 134.588 14.0907 134.588 14.3893C134.588 14.878 134.48 15.421 134.235 16.0454C133.991 16.6698 133.746 17.2128 133.502 17.6472C133.122 17.3486 132.742 17.1042 132.389 16.9413C132.009 16.7785 131.575 16.697 131.059 16.697C130.38 16.697 129.81 16.887 129.348 17.2943C128.887 17.7015 128.642 18.1631 128.642 18.7332V29.43H124.136V13.2762C124.244 13.249 124.38 13.2219 124.543 13.2219C124.679 13.1947 124.842 13.1947 125.004 13.1676C125.167 13.1676 125.385 13.1404 125.629 13.1404C126.335 13.1404 126.959 13.2762 127.475 13.5477C127.964 13.8463 128.289 14.2536 128.425 14.8237ZM141.213 14.8237C141.348 14.6337 141.511 14.4165 141.728 14.1721C141.946 13.9278 142.217 13.7106 142.543 13.5205C142.869 13.3305 143.222 13.1676 143.602 13.0318C143.982 12.8961 144.389 12.8418 144.851 12.8418C145.122 12.8418 145.394 12.8689 145.692 12.8961C145.991 12.9504 146.262 13.0318 146.507 13.1404C146.751 13.249 146.968 13.4119 147.131 13.6291C147.294 13.8463 147.375 14.0907 147.375 14.3893C147.375 14.878 147.267 15.421 147.022 16.0454C146.778 16.6698 146.534 17.2128 146.289 17.6472C145.909 17.3486 145.529 17.1042 145.176 16.9413C144.796 16.7785 144.362 16.697 143.846 16.697C143.167 16.697 142.597 16.887 142.136 17.2943C141.674 17.7015 141.43 18.1631 141.43 18.7332V29.43H136.923V13.2762C137.032 13.249 137.167 13.2219 137.33 13.2219C137.466 13.1947 137.629 13.1947 137.792 13.1676C137.955 13.1676 138.172 13.1404 138.416 13.1404C139.122 13.1404 139.746 13.2762 140.262 13.5477C140.751 13.8463 141.077 14.2536 141.213 14.8237ZM162.688 25.0861C162.688 26.8237 162.932 28.0997 163.448 28.887C163.041 29.0499 162.688 29.1585 162.335 29.2128C161.982 29.2671 161.629 29.3214 161.249 29.3214C160.461 29.3214 159.864 29.1585 159.457 28.8599C159.05 28.5612 158.778 28.0997 158.67 27.5296C158.181 28.0454 157.556 28.4798 156.742 28.8327C155.955 29.1857 154.977 29.3486 153.837 29.3486C153.24 29.3486 152.642 29.2671 152.045 29.1042C151.448 28.9413 150.905 28.6698 150.416 28.2897C149.927 27.9097 149.547 27.421 149.222 26.7965C148.923 26.1721 148.76 25.4119 148.76 24.516C148.76 23.4029 149.032 22.4798 149.575 21.7739C150.118 21.068 150.796 20.525 151.611 20.1178C152.425 19.7106 153.321 19.4391 154.244 19.2762C155.194 19.1133 156.063 19.0318 156.851 18.9775C157.122 18.9504 157.366 18.9504 157.638 18.9504H158.344V18.3531C158.344 17.5115 158.127 16.9142 157.665 16.5341C157.203 16.1812 156.47 15.9911 155.466 15.9911C154.516 15.9911 153.674 16.154 152.941 16.4527C152.208 16.7513 151.475 17.1042 150.769 17.5115C150.47 17.1314 150.199 16.7242 150.036 16.2626C149.846 15.8011 149.765 15.4753 149.765 15.2581C149.765 14.9594 149.927 14.6608 150.28 14.3622C150.633 14.0635 151.095 13.8192 151.692 13.5748C152.289 13.3305 152.968 13.1676 153.756 13.0047C154.516 12.869 155.33 12.7875 156.199 12.7875C157.394 12.7875 158.398 12.8961 159.213 13.1404C160.027 13.3848 160.706 13.7649 161.222 14.2536C161.737 14.7694 162.117 15.3938 162.335 16.154C162.552 16.9142 162.66 17.8101 162.66 18.8146L162.688 25.0861ZM158.452 21.2581H157.991C157.828 21.2581 157.692 21.2581 157.529 21.2852C156.986 21.3395 156.443 21.3938 155.9 21.4753C155.357 21.5567 154.869 21.7196 154.461 21.9368C154.054 22.154 153.701 22.4526 153.43 22.8056C153.158 23.1585 153.022 23.6201 153.022 24.163C153.022 24.7875 153.185 25.3033 153.538 25.7377C153.891 26.1721 154.489 26.3893 155.33 26.3893C155.737 26.3893 156.145 26.335 156.525 26.2264C156.905 26.1178 157.231 25.9821 157.529 25.792C157.828 25.602 158.045 25.4119 158.208 25.2219C158.371 25.0047 158.452 24.8146 158.452 24.6517V21.2581Z" fill="#044D80"/>
</svg>
