<svg width="37" height="36" viewBox="0 0 37 36" fill="none" xmlns="http://www.w3.org/2000/svg">
<path d="M26.0658 24.9286C27.307 27.0826 28.5345 29.2122 29.761 31.3394C24.3298 35.4974 15.88 35.9999 9.62473 31.2116C2.4263 25.6969 1.24317 16.2873 5.0971 9.51385C9.52967 1.72293 17.8245 -7.689e-05 23.1652 1.26334C23.0207 1.57712 19.822 8.21306 19.822 8.21306C19.822 8.21306 19.5692 8.22967 19.4261 8.23244C17.8476 8.29935 16.6718 8.66665 15.4116 9.3182C14.029 10.0397 12.8442 11.0888 11.9606 12.3739C11.0771 13.6589 10.5218 15.1409 10.3432 16.6901C10.1569 18.2613 10.3741 19.854 10.9744 21.3179C11.482 22.5555 12.2 23.6546 13.1626 24.5826C14.6392 26.0075 16.3963 26.8898 18.4331 27.1818C20.3619 27.4587 22.2169 27.1846 23.9551 26.3111C24.6072 25.984 25.1618 25.6226 25.8101 25.1271C25.8927 25.0735 25.9661 25.0057 26.0658 24.9286Z" fill="#FF492C"/>
<path d="M26.078 6.03761C25.7628 5.72752 25.4707 5.44143 25.18 5.1535C25.0065 4.98184 24.8395 4.80327 24.6618 4.63576C24.5981 4.57531 24.5234 4.49272 24.5234 4.49272C24.5234 4.49272 24.5838 4.36444 24.6097 4.31183C24.9498 3.62937 25.4827 3.13055 26.1149 2.73372C26.814 2.29156 27.6284 2.06659 28.4553 2.08724C29.5134 2.10801 30.4972 2.37149 31.3273 3.08118C31.9401 3.60491 32.2543 4.26938 32.3097 5.06259C32.402 6.40076 31.8483 7.42562 30.7487 8.14084C30.1026 8.56168 29.4059 8.88699 28.7073 9.27229C28.322 9.48501 27.9925 9.6719 27.616 10.0567C27.2846 10.443 27.2685 10.807 27.2685 10.807L32.2737 10.8006V13.0298H24.5479V12.8143C24.5183 11.7188 24.6461 10.688 25.1477 9.69312C25.6092 8.7804 26.3262 8.11224 27.1877 7.59773C27.8513 7.20136 28.5499 6.86405 29.2148 6.46952C29.6251 6.22634 29.9148 5.86965 29.9125 5.35238C29.9125 4.90847 29.5895 4.51394 29.1281 4.39074C28.04 4.09727 26.9326 4.56562 26.3567 5.56141C26.2727 5.70676 26.1869 5.85119 26.078 6.03761ZM35.7594 22.5589L31.5414 15.2747H23.1945L18.9492 22.6341H27.3575L31.5068 29.8838L35.7594 22.5589Z" fill="#FF492C"/>
</svg>
