<svg width="108" height="28" viewBox="0 0 108 28" fill="none" xmlns="http://www.w3.org/2000/svg">
<path d="M13.9589 27.9999C17.9969 24.3103 18.2634 18.0586 14.5738 14.041C10.8842 10.0235 4.63247 9.73651 0.573934 13.4261C0.368958 13.6311 0.163981 13.795 0 14L13.9589 27.9999Z" fill="#00916E"/>
<path d="M0 13.9999C3.87405 17.8329 10.0848 17.8329 13.9589 13.9999C14.9838 12.975 20.6411 6.70273 13.9589 0L0 13.9999Z" fill="#FED82F"/>
<path d="M13.9589 13.9999L14.2459 13.7129C10.5768 10.0439 4.38649 10.1054 0.491942 13.5285L0 13.9999L0.471446 14.4304C4.38649 17.874 10.2898 17.669 13.9589 13.9999Z" fill="#14B35F"/>
<path d="M13.7337 5.18569C14.4511 5.18569 15.0661 4.61175 15.0661 3.85334C15.0661 3.09493 14.4921 2.521 13.7337 2.521C13.0163 2.521 12.4014 3.09493 12.4014 3.85334C12.4014 4.57076 12.9753 5.18569 13.7337 5.18569Z" fill="#00916E"/>
<path d="M23.5107 7.93202H26.8314L26.8519 10.1048C27.5078 8.58794 28.8401 7.70654 30.5209 7.70654C32.3862 7.70654 33.7391 8.60844 34.354 10.1458C35.1534 8.60844 36.5267 7.70654 38.31 7.70654C40.9337 7.70654 42.512 9.55133 42.512 12.339V21.2965H39.0889V13.1794C39.0889 11.6626 38.392 10.7607 37.0597 10.7607C35.5428 10.7607 34.7229 11.6831 34.7229 13.6509V21.317H31.2998V13.1794C31.2998 11.6626 30.6029 10.7607 29.2706 10.7607C27.7537 10.7607 26.9338 11.6831 26.9338 13.6509V21.317H23.5107V7.93202V7.93202Z" fill="#1F2937"/>
<path d="M47.6163 7.93188L50.6294 17.1968L53.4991 7.93188H57.0452L52.4127 21.1324C51.3674 24.0635 49.994 25.7853 47.0424 25.7853C46.161 25.7853 45.1976 25.5394 44.7466 25.1499V22.3212C45.2591 22.5877 45.9765 22.7107 46.5094 22.7107C47.8418 22.7107 48.4977 22.1572 48.7437 21.1939L43.8447 7.93188H47.6163V7.93188Z" fill="#1F2937"/>
<path d="M68.3802 21.3172H65.1621L65.1416 19.083C64.5267 20.6203 63.3583 21.5222 61.5955 21.5222C58.9718 21.5222 57.3115 19.6774 57.3115 17.5251C57.3115 13.8561 60.5502 13.3846 63.2353 13.1386L64.9981 12.9747V12.6877C64.9981 11.3349 63.6863 10.6174 61.8415 10.6174C60.4272 10.6174 59.0743 10.9864 57.7625 11.7038L58.5824 8.56768C59.8942 7.91175 61.2881 7.68628 62.5999 7.68628C65.7156 7.68628 68.3802 9.14161 68.3802 12.6057V21.3172V21.3172ZM62.7024 18.8165C63.9323 18.8165 64.9981 17.8121 64.9981 16.1518V15.2294L63.1124 15.4139C61.5135 15.5779 60.7551 16.0493 60.7551 17.1357C60.7346 18.0786 61.3496 18.8165 62.7024 18.8165Z" fill="#1F2937"/>
<path d="M71.0654 2.21338H74.4885V21.3172H71.0654V2.21338Z" fill="#1F2937"/>
<path d="M77.3994 2.21338H80.884V5.77997H77.3994V2.21338ZM77.4199 7.93222H80.843V21.3172H77.4199V7.93222Z" fill="#1F2937"/>
<path d="M90.5997 10.7199C88.6935 10.7199 86.4592 11.7038 86.4592 14.4505C86.4592 17.4022 88.6935 18.6525 91.1122 18.6525C92.0961 18.6525 93.2439 18.3246 94.0023 17.8326V20.8663C93.3874 21.2352 92.0961 21.6452 90.5997 21.6452C87.3611 21.6452 82.9746 19.8619 82.9746 14.6555C82.9746 9.14161 87.6276 7.68628 90.6612 7.68628C92.301 7.68628 93.4284 8.05523 94.1458 8.56768L93.3464 11.5193C92.629 11.0479 91.6656 10.7199 90.5997 10.7199Z" fill="#1F2937"/>
<path d="M102.96 21.6656C97.6921 21.6656 95.0684 18.6935 95.0684 14.5939C95.0684 10.8429 97.5076 7.60425 101.853 7.60425C105.625 7.60425 107.838 10.6994 107.838 14.2865C107.838 14.7579 107.818 15.4343 107.736 15.8648H98.635C99.0654 17.7506 100.582 18.796 103.349 18.796C104.846 18.796 106.363 18.345 107.223 17.7096V20.7227C106.24 21.3172 104.395 21.6656 102.96 21.6656ZM101.71 10.4534C99.9878 10.4534 98.8604 11.6013 98.5735 13.4256H104.477C104.251 11.6423 103.247 10.4534 101.71 10.4534Z" fill="#1F2937"/>
</svg>
