<svg width="147" height="36" viewBox="0 0 147 36" fill="none" xmlns="http://www.w3.org/2000/svg">
<path d="M38.6788 12.7578L53.5316 12.7578L53.5316 15.5195L47.6835 15.5195L47.6835 31.0878L44.478 31.0878L44.478 15.5195L38.6543 15.5195L38.6788 12.7578ZM52.8954 17.8169L55.636 17.8169L55.636 20.3831L55.6849 20.3831C55.7828 20.0165 55.9541 19.6743 56.1988 19.3322C56.4435 18.99 56.7371 18.6723 57.1042 18.4034C57.4467 18.1102 57.8382 17.8902 58.2787 17.7191C58.6947 17.548 59.1351 17.4503 59.5756 17.4503C59.9181 17.4503 60.1628 17.4747 60.2852 17.4747C60.4075 17.4992 60.5543 17.5236 60.6767 17.5236L60.6767 20.3342C60.4809 20.2853 60.2607 20.2609 60.0405 20.2364C59.8202 20.212 59.6245 20.1876 59.4043 20.1876C58.9149 20.1876 58.45 20.2853 58.0095 20.4808C57.5691 20.6764 57.202 20.9696 56.8595 21.3362C56.5414 21.7273 56.2722 22.1916 56.0764 22.7538C55.8807 23.3159 55.7828 23.9758 55.7828 24.709L55.7828 31.0145L52.8465 31.0145L52.8954 17.8169ZM74.1348 31.0878L71.2474 31.0878L71.2474 29.2304L71.1985 29.2304C70.8314 29.9147 70.2931 30.4279 69.5835 30.8434C68.8739 31.2589 68.1398 31.4544 67.4057 31.4544C65.6684 31.4544 64.396 31.0389 63.613 30.1591C62.83 29.3037 62.4385 27.9839 62.4385 26.2487L62.4385 17.8169L65.3748 17.8169L65.3748 25.9554C65.3748 27.1285 65.595 27.9595 66.0599 28.4238C66.5004 28.9126 67.1366 29.157 67.9441 29.157C68.5558 29.157 69.0696 29.0593 69.4856 28.8638C69.9016 28.6682 70.2442 28.4238 70.4889 28.1061C70.758 27.7884 70.9293 27.3974 71.0517 26.9574C71.174 26.5175 71.2229 26.0287 71.2229 25.5155L71.2229 17.8169L74.1593 17.8169L74.1593 31.0878L74.1348 31.0878ZM79.1265 26.8352C79.2244 27.6906 79.5425 28.2772 80.1053 28.6438C80.6681 28.986 81.3532 29.157 82.1362 29.157C82.4054 29.157 82.7235 29.1326 83.0661 29.0837C83.4087 29.0348 83.7512 28.9615 84.0449 28.8393C84.363 28.7171 84.6077 28.546 84.8034 28.3016C84.9992 28.0572 85.097 27.764 85.0726 27.3974C85.0481 27.0308 84.9258 26.713 84.6566 26.4686C84.3874 26.2242 84.0693 26.0532 83.6778 25.8821C83.2863 25.7354 82.8214 25.6132 82.3075 25.5155C81.7937 25.4177 81.2798 25.2955 80.7415 25.1733C80.2032 25.0511 79.6649 24.9045 79.151 24.7334C78.6371 24.5623 78.1967 24.3424 77.7807 24.0246C77.3892 23.7314 77.0466 23.3648 76.8264 22.9004C76.5817 22.4361 76.4594 21.8984 76.4594 21.214C76.4594 20.4808 76.6307 19.8943 76.9977 19.4055C77.3403 18.9167 77.8052 18.5257 78.3435 18.2324C78.8818 17.9391 79.4936 17.7191 80.1542 17.5969C80.8149 17.4747 81.4511 17.4258 82.0384 17.4258C82.7235 17.4258 83.3842 17.4992 83.9959 17.6458C84.6077 17.7925 85.1949 18.0124 85.6843 18.3546C86.1982 18.6723 86.6141 19.1122 86.9322 19.6254C87.2748 20.1387 87.4706 20.7741 87.5684 21.5073L84.5098 21.5073C84.363 20.7986 84.0449 20.3342 83.5555 20.0898C83.0416 19.8454 82.4788 19.7232 81.8181 19.7232C81.6224 19.7232 81.3532 19.7476 81.0841 19.7721C80.7904 19.821 80.5457 19.8699 80.2766 19.9676C80.0319 20.0654 79.8117 20.212 79.6404 20.3831C79.4691 20.5542 79.3712 20.7986 79.3712 21.0918C79.3712 21.4584 79.4936 21.7273 79.7383 21.9472C79.983 22.1672 80.3011 22.3383 80.717 22.5094C81.1085 22.656 81.5735 22.7782 82.0873 22.876C82.6012 22.9737 83.1395 23.0959 83.6778 23.2181C84.2161 23.3403 84.73 23.487 85.2439 23.658C85.7577 23.8291 86.2226 24.0491 86.6141 24.3668C87.0056 24.6601 87.3482 25.0267 87.5929 25.4666C87.8376 25.9065 87.9599 26.4686 87.9599 27.1041C87.9599 27.8862 87.7887 28.546 87.4216 29.1082C87.0546 29.6458 86.5897 30.1102 86.0269 30.4524C85.4641 30.7945 84.8034 31.0389 84.1183 31.21C83.4087 31.3566 82.7235 31.4544 82.0384 31.4544C81.2064 31.4544 80.4234 31.3566 79.7138 31.1611C79.0042 30.9656 78.368 30.6723 77.8541 30.3057C77.3403 29.9147 76.9243 29.4503 76.6307 28.8638C76.337 28.3016 76.1657 27.6173 76.1413 26.8108L79.1021 26.8108L79.1021 26.8352L79.1265 26.8352ZM88.7919 17.8169L91.0186 17.8169L91.0186 13.8087L93.9549 13.8087L93.9549 17.7924L96.5976 17.7924L96.5976 19.9676L93.9549 19.9676L93.9549 27.0552C93.9549 27.3729 93.9794 27.6173 94.0039 27.8617C94.0283 28.0817 94.1017 28.2772 94.1751 28.4238C94.273 28.5705 94.4198 28.6927 94.5911 28.766C94.7869 28.8393 95.0316 28.8882 95.3741 28.8882C95.5699 28.8882 95.7901 28.8882 95.9859 28.8638C96.1816 28.8393 96.4019 28.8149 96.5976 28.766L96.5976 31.0389C96.2795 31.0878 95.9614 31.1122 95.6433 31.1367C95.3252 31.1856 95.0316 31.1856 94.689 31.1856C93.906 31.1856 93.2943 31.1122 92.8293 30.9656C92.3644 30.819 91.9974 30.599 91.7282 30.3302C91.4591 30.0369 91.2878 29.6947 91.1899 29.2792C91.092 28.8638 91.0431 28.3505 91.0186 27.8128L91.0186 19.992L88.7919 19.992L88.7919 17.768L88.7919 17.8169ZM98.653 17.8169L101.418 17.8169L101.418 19.6254L101.467 19.6254C101.883 18.8434 102.446 18.3057 103.18 17.9635C103.914 17.6214 104.697 17.4503 105.578 17.4503C106.63 17.4503 107.535 17.6214 108.318 18.0124C109.101 18.379 109.738 18.8678 110.251 19.5277C110.765 20.1631 111.157 20.9208 111.402 21.7762C111.646 22.6316 111.793 23.5603 111.793 24.5134C111.793 25.4177 111.671 26.2731 111.45 27.1041C111.206 27.935 110.863 28.6927 110.398 29.3281C109.933 29.9636 109.346 30.4768 108.612 30.8678C107.878 31.2589 107.046 31.4544 106.067 31.4544C105.651 31.4544 105.211 31.4055 104.795 31.3322C104.379 31.2589 103.963 31.1367 103.571 30.9656C103.18 30.7945 102.813 30.5746 102.495 30.3057C102.152 30.0369 101.883 29.7192 101.663 29.377L101.614 29.377L101.614 36.0002L98.6775 36.0002L98.6775 17.8169L98.653 17.8169ZM108.906 24.4646C108.906 23.878 108.832 23.2915 108.661 22.7293C108.514 22.1672 108.269 21.6784 107.951 21.2385C107.633 20.7986 107.242 20.4564 106.801 20.1876C106.336 19.9187 105.798 19.7965 105.211 19.7965C103.987 19.7965 103.058 20.212 102.421 21.0674C101.81 21.9228 101.491 23.0715 101.491 24.489C101.491 25.1733 101.565 25.7843 101.736 26.3464C101.907 26.9086 102.128 27.3974 102.47 27.8128C102.788 28.2283 103.18 28.546 103.645 28.7904C104.11 29.0348 104.624 29.157 105.235 29.157C105.92 29.157 106.459 29.0104 106.924 28.7416C107.389 28.4727 107.756 28.1061 108.074 27.6906C108.367 27.2507 108.588 26.7619 108.71 26.1998C108.832 25.6133 108.906 25.0511 108.906 24.4646ZM114.069 12.7578L117.005 12.7578L117.005 15.5195L114.069 15.5195L114.069 12.7578ZM114.069 17.8169L117.005 17.8169L117.005 31.0878L114.069 31.0878L114.069 17.8169ZM119.623 12.7578L122.56 12.7578L122.56 31.0878L119.623 31.0878L119.623 12.7578ZM131.515 31.4544C130.463 31.4544 129.509 31.2833 128.677 30.9167C127.845 30.5501 127.16 30.0858 126.573 29.4748C126.01 28.8638 125.569 28.1061 125.276 27.2507C124.982 26.3953 124.811 25.4422 124.811 24.4401C124.811 23.4381 124.958 22.5094 125.276 21.654C125.569 20.7986 126.01 20.0654 126.573 19.4299C127.135 18.8189 127.845 18.3301 128.677 17.988C129.509 17.6458 130.463 17.4503 131.515 17.4503C132.567 17.4503 133.522 17.6214 134.354 17.988C135.186 18.3301 135.871 18.8189 136.458 19.4299C137.021 20.0409 137.461 20.7986 137.755 21.654C138.049 22.5094 138.22 23.4381 138.22 24.4401C138.22 25.4666 138.073 26.3953 137.755 27.2507C137.437 28.1061 137.021 28.8393 136.458 29.4748C135.895 30.0858 135.186 30.5746 134.354 30.9167C133.522 31.2589 132.592 31.4544 131.515 31.4544ZM131.515 29.1326C132.152 29.1326 132.739 28.986 133.204 28.7171C133.693 28.4483 134.06 28.0817 134.378 27.6418C134.696 27.2019 134.917 26.6886 135.063 26.1509C135.21 25.5888 135.284 25.0267 135.284 24.4401C135.284 23.878 135.21 23.3159 135.063 22.7538C134.917 22.1917 134.696 21.7029 134.378 21.2629C134.06 20.823 133.669 20.4809 133.204 20.212C132.714 19.9432 132.152 19.7965 131.515 19.7965C130.879 19.7965 130.292 19.9432 129.827 20.212C129.338 20.4809 128.971 20.8475 128.652 21.2629C128.334 21.7029 128.114 22.1917 127.967 22.7538C127.82 23.3159 127.747 23.878 127.747 24.4401C127.747 25.0267 127.82 25.5888 127.967 26.1509C128.114 26.7131 128.334 27.2019 128.652 27.6418C128.971 28.0817 129.362 28.4483 129.827 28.7171C130.316 29.0104 130.879 29.1326 131.515 29.1326ZM139.101 17.8169L141.328 17.8169L141.328 13.8087L144.264 13.8087L144.264 17.7925L146.907 17.7925L146.907 19.9676L144.264 19.9676L144.264 27.0552C144.264 27.3729 144.288 27.6173 144.313 27.8617C144.337 28.0817 144.411 28.2772 144.484 28.4238C144.582 28.5705 144.729 28.6927 144.9 28.766C145.096 28.8393 145.34 28.8882 145.683 28.8882C145.879 28.8882 146.099 28.8882 146.295 28.8638C146.491 28.8393 146.711 28.8149 146.907 28.766L146.907 31.0389C146.588 31.0878 146.27 31.1122 145.952 31.1367C145.634 31.1856 145.34 31.1856 144.998 31.1856C144.215 31.1856 143.603 31.1123 143.138 30.9656C142.673 30.819 142.306 30.599 142.037 30.3302C141.768 30.0369 141.597 29.6947 141.499 29.2792C141.401 28.8638 141.352 28.3505 141.328 27.8128L141.328 19.9921L139.101 19.9921L139.101 17.768L139.101 17.8169Z" fill="black"/>
<path d="M35.2542 12.7577L21.8205 12.7577L17.6852 1.53807e-06L13.5254 12.7577L0.0917958 12.7332L10.9562 20.6274L6.79638 33.385L17.6608 25.4909L28.5251 33.385L24.3898 20.6274L35.2542 12.7577Z" fill="#00B67A"/>
<path d="M25.32 23.5109L24.3901 20.627L17.6855 25.4905L25.32 23.5109Z" fill="#005128"/>
</svg>
