<svg width="105" height="40" viewBox="0 0 105 40" fill="none" xmlns="http://www.w3.org/2000/svg">
<g clip-path="url(#clip0_1359_24134)">
<path fill-rule="evenodd" clip-rule="evenodd" d="M40.0631 29.8493C40.0631 30.0683 40.0564 30.5432 40.0433 30.9101C40.0111 31.8078 39.94 32.9662 39.8323 33.494C39.6706 34.2872 39.4264 35.0359 39.1081 35.659C38.7314 36.3961 38.251 37.0564 37.68 37.6263C37.1104 38.195 36.4507 38.6736 35.7147 39.0487C35.0883 39.3679 34.335 39.6122 33.5373 39.7733C33.0147 39.8788 31.865 39.9486 30.9731 39.9803C30.6058 39.9934 30.1307 40 29.9125 40L10.2171 39.9968C9.99803 39.9968 9.52313 39.9901 9.15626 39.977C8.25852 39.9448 7.10015 39.8736 6.57231 39.766C5.77915 39.6042 5.03043 39.3601 4.40733 39.0418C3.67019 38.6651 3.00993 38.1846 2.44008 37.6137C1.87135 37.044 1.39279 36.3844 1.01767 35.6484C0.698394 35.022 0.454074 34.2686 0.293047 33.471C0.187589 32.9484 0.117792 31.7987 0.0860385 30.9067C0.0730012 30.5395 0.0664062 30.0644 0.0664062 29.8463L0.0695205 10.1507C0.0695205 9.93172 0.0762376 9.45679 0.0893665 9.08988C0.121609 8.19217 0.192718 7.03378 0.300314 6.50597C0.462074 5.7128 0.70621 4.96412 1.0246 4.34098C1.40125 3.60384 1.88173 2.94358 2.45262 2.3737C3.0223 1.80501 3.68194 1.32641 4.41796 0.951263C5.04439 0.632048 5.79774 0.38776 6.59542 0.226702C7.11792 0.121183 8.26768 0.0513858 9.15968 0.0196933C9.52692 0.00659497 10.002 0 10.2201 0L29.9157 0.00317535C30.1347 0.00317535 30.6096 0.00986192 30.9765 0.0229908C31.8742 0.0552329 33.0325 0.126342 33.5604 0.233969C34.3536 0.395698 35.1023 0.639865 35.7254 0.958224C36.4625 1.33487 37.1228 1.81536 37.6926 2.38628C38.2613 2.95592 38.7399 3.61554 39.115 4.35161C39.4343 4.97804 39.6786 5.73133 39.8397 6.52902C39.9451 7.05155 40.0149 8.20127 40.0467 9.0933C40.0598 9.46054 40.0664 9.93562 40.0664 10.1538L40.0631 29.8493Z" fill="url(#paint0_linear_1359_24134)"/>
<path fill-rule="evenodd" clip-rule="evenodd" d="M30.6632 9.46305C27.9551 6.75273 24.3537 5.25934 20.5167 5.25781C12.6107 5.25781 6.17618 11.6899 6.173 19.596C6.17196 22.1231 6.83244 24.5901 8.08765 26.7644L6.05273 34.1949L13.6565 32.201C15.7515 33.3433 18.1103 33.9453 20.5109 33.9463H20.5169C28.4221 33.9463 34.8572 27.5135 34.8604 19.6073C34.8619 15.776 33.3713 12.1733 30.6632 9.46299V9.46302V9.46305ZM20.5168 31.5246H20.512C18.3727 31.5238 16.2745 30.9493 14.4441 29.8634L14.0087 29.6051L9.49653 30.7884L10.7009 26.3905L10.4174 25.9396C9.224 24.042 8.59369 21.8488 8.59464 19.5969C8.59723 13.0257 13.9454 7.67957 20.5214 7.67957C23.7057 7.68079 26.699 8.92214 28.9499 11.1748C31.2008 13.4275 32.4397 16.4219 32.4385 19.6065C32.436 26.1782 27.0878 31.5246 20.5168 31.5246Z" fill="white"/>
<path fill-rule="evenodd" clip-rule="evenodd" d="M15.7072 26.5415C15.8081 26.6024 16.0155 26.6024 16.4911 26.6019C18.5095 26.6002 20.2529 26.594 21.493 26.594C27.2803 26.594 27.1283 20.5014 24.4223 19.7413C24.8186 19.0391 26.6244 17.7201 25.5076 14.9938C24.4032 12.2979 19.654 12.9097 16.4058 12.9113C15.204 12.9114 15.3837 13.7995 15.3899 15.1803C15.3997 17.3672 15.3917 23.287 15.3902 25.846C15.3899 26.3648 15.5464 26.4445 15.7072 26.5415ZM18.2113 24.3088C18.7577 24.3088 20.0467 24.3088 21.1516 24.307C22.4028 24.3051 23.517 23.7198 23.4891 22.4742C23.4687 21.3009 22.688 20.9158 21.6046 20.8083C20.5726 20.8182 19.3922 20.8182 18.2112 20.8182V24.3088H18.2113ZM18.2113 18.4617C20.3882 18.4319 21.228 18.5495 22.4165 18.2518C23.2331 17.7882 23.5899 16.069 22.4211 15.4851C21.6091 15.0794 19.2096 15.2182 18.2113 15.2598V18.4617V18.4617Z" fill="white"/>
</g>
<path d="M60.7544 27.412V22.156H65.9864V20.74H60.7544V15.508H59.2184V20.74H53.9864V22.156H59.2184V27.412H60.7544Z" fill="#111111" fill-opacity="0.75"/>
<path d="M100.008 40C105.776 34.7292 106.157 25.7981 100.886 20.0587C95.6153 14.3194 86.6842 13.9094 80.8863 19.1803C80.5935 19.4731 80.3007 19.7073 80.0664 20.0002L100.008 40Z" fill="#00916E"/>
<path d="M80.0664 19.9998C85.6008 25.4756 94.4733 25.4756 100.008 19.9998C101.472 18.5357 109.554 9.57532 100.008 0L80.0664 19.9998Z" fill="#FED82F"/>
<path d="M100.008 19.9996L100.418 19.5896C95.1761 14.3481 86.3328 14.436 80.7692 19.3261L80.0664 19.9996L80.7399 20.6145C86.3328 25.534 94.7661 25.2411 100.008 19.9996Z" fill="#14B35F"/>
<path d="M99.6826 7.40827C100.708 7.40827 101.586 6.58836 101.586 5.50491C101.586 4.42147 100.766 3.60156 99.6826 3.60156C98.6578 3.60156 97.7793 4.42147 97.7793 5.50491C97.7793 6.5298 98.5992 7.40827 99.6826 7.40827Z" fill="#00916E"/>
<defs>
<linearGradient id="paint0_linear_1359_24134" x1="20.0663" y1="-0.0381959" x2="20.0663" y2="39.9991" gradientUnits="userSpaceOnUse">
<stop stop-color="#61FD7D"/>
<stop offset="1" stop-color="#2BB826"/>
</linearGradient>
<clipPath id="clip0_1359_24134">
<rect width="40" height="40" fill="white" transform="translate(0.0664062)"/>
</clipPath>
</defs>
</svg>
