<svg width="40" height="40" viewBox="0 0 40 40" fill="none" xmlns="http://www.w3.org/2000/svg">
<g clip-path="url(#clip0_1359_23791)">
<path fill-rule="evenodd" clip-rule="evenodd" d="M39.9967 29.8493C39.9967 30.0683 39.99 30.5432 39.9769 30.9101C39.9447 31.8078 39.8735 32.9662 39.7659 33.494C39.6042 34.2872 39.36 35.0359 39.0417 35.659C38.665 36.3961 38.1846 37.0564 37.6136 37.6263C37.044 38.195 36.3843 38.6736 35.6483 39.0487C35.0219 39.3679 34.2686 39.6122 33.4709 39.7733C32.9483 39.8788 31.7986 39.9486 30.9066 39.9803C30.5394 39.9934 30.0643 40 29.8461 40L10.1507 39.9968C9.93163 39.9968 9.45673 39.9901 9.08985 39.977C8.19211 39.9448 7.03375 39.8736 6.50591 39.766C5.71274 39.6042 4.96403 39.3601 4.34092 39.0418C3.60378 38.6651 2.94352 38.1846 2.37367 37.6137C1.80495 37.044 1.32638 36.3844 0.951263 35.6484C0.631987 35.022 0.387668 34.2686 0.226641 33.471C0.121183 32.9484 0.0513858 31.7987 0.0196322 30.9067C0.00659497 30.5395 0 30.0644 0 29.8463L0.00311429 10.1507C0.00311429 9.93172 0.00983139 9.45679 0.0229603 9.08988C0.0552023 8.19217 0.126312 7.03378 0.233908 6.50597C0.395668 5.7128 0.639803 4.96412 0.958194 4.34098C1.33484 3.60384 1.81533 2.94358 2.38622 2.3737C2.95589 1.80501 3.61554 1.32641 4.35155 0.951263C4.97798 0.632048 5.73133 0.38776 6.52902 0.226702C7.05152 0.121183 8.20127 0.0513858 9.09327 0.0196933C9.46051 0.00659497 9.93563 0 10.1537 0L29.8493 0.00317535C30.0683 0.00317535 30.5432 0.00986192 30.9101 0.0229908C31.8078 0.0552329 32.9661 0.126342 33.494 0.233969C34.2871 0.395698 35.0359 0.639865 35.659 0.958224C36.3961 1.33487 37.0564 1.81536 37.6262 2.38628C38.1949 2.95592 38.6735 3.61554 39.0486 4.35161C39.3679 4.97804 39.6122 5.73133 39.7732 6.52902C39.8787 7.05155 39.9485 8.20127 39.9803 9.0933C39.9934 9.46054 39.9999 9.93562 39.9999 10.1538L39.9967 29.8493Z" fill="url(#paint0_linear_1359_23791)"/>
<path fill-rule="evenodd" clip-rule="evenodd" d="M30.5968 9.46305C27.8887 6.75273 24.2873 5.25934 20.4502 5.25781C12.5443 5.25781 6.10977 11.6899 6.10659 19.596C6.10556 22.1231 6.76603 24.5901 8.02124 26.7644L5.98633 34.1949L13.5901 32.201C15.6851 33.3433 18.0439 33.9453 20.4445 33.9463H20.4505C28.3557 33.9463 34.7908 27.5135 34.794 19.6073C34.7955 15.776 33.3049 12.1733 30.5968 9.46299V9.46302V9.46305ZM20.4504 31.5246H20.4455C18.3063 31.5238 16.2081 30.9493 14.3777 29.8634L13.9423 29.6051L9.43012 30.7884L10.6345 26.3905L10.351 25.9396C9.15759 24.042 8.52728 21.8488 8.52823 19.5969C8.53082 13.0257 13.879 7.67957 20.455 7.67957C23.6393 7.68079 26.6326 8.92214 28.8835 11.1748C31.1344 13.4275 32.3733 16.4219 32.3721 19.6065C32.3695 26.1782 27.0214 31.5246 20.4504 31.5246Z" fill="white"/>
<path fill-rule="evenodd" clip-rule="evenodd" d="M15.6408 26.5415C15.7417 26.6024 15.9491 26.6024 16.4247 26.6019C18.4431 26.6002 20.1865 26.594 21.4266 26.594C27.2139 26.594 27.0618 20.5014 24.3559 19.7413C24.7522 19.0391 26.558 17.7201 25.4412 14.9938C24.3368 12.2979 19.5876 12.9097 16.3394 12.9113C15.1376 12.9114 15.3173 13.7995 15.3235 15.1803C15.3333 17.3672 15.3252 23.287 15.3238 25.846C15.3235 26.3648 15.48 26.4445 15.6408 26.5415ZM18.1449 24.3088C18.6913 24.3088 19.9803 24.3088 21.0852 24.307C22.3364 24.3051 23.4506 23.7198 23.4227 22.4742C23.4023 21.3009 22.6216 20.9158 21.5382 20.8083C20.5062 20.8182 19.3258 20.8182 18.1448 20.8182V24.3088H18.1449ZM18.1449 18.4617C20.3218 18.4319 21.1616 18.5495 22.3501 18.2518C23.1667 17.7882 23.5235 16.069 22.3547 15.4851C21.5427 15.0794 19.1432 15.2182 18.1449 15.2598V18.4617V18.4617Z" fill="white"/>
</g>
<defs>
<linearGradient id="paint0_linear_1359_23791" x1="19.9999" y1="-0.0381959" x2="19.9999" y2="39.9991" gradientUnits="userSpaceOnUse">
<stop stop-color="#61FD7D"/>
<stop offset="1" stop-color="#2BB826"/>
</linearGradient>
<clipPath id="clip0_1359_23791">
<rect width="40" height="40" fill="white"/>
</clipPath>
</defs>
</svg>
