<svg xmlns="http://www.w3.org/2000/svg" id="Layer_2" data-name="Layer 2" viewBox="0 0 440.22 477.75"><defs><style>.cls-1 { fill: #2a0e52; } .cls-2 { fill: #7c29f0; }</style></defs><g id="Layer_1-2" data-name="Layer 1"><g><path class="cls-2" d="m105.11 393.02V94.87h81.22c18.66.0 35.92 2.68 51.8 8.05 2.93-1.94 5.91-3.71 8.98-5.31 14.61-7.69 30.49-11.43 48.52-11.43 32.52.0 69.2 12.48 111.02 27.96C396.4 97.3 384.05 82 369.58 68.26c-22.52-21.39-49.37-38.11-80.54-50.16C257.88 6.04 223.63.0 186.32.0H0v414.96h0c33.88.0 67.44-6.58 98.81-19.37l6.29-2.57z"/><g><path class="cls-1" d="m421.79 143.67c-1.79-4.2-3.69-8.34-5.69-12.37-69.96-26.08-120.59-44.7-163.06-22.35-8.23 4.31-16.15 10.17-23.84 17.83-78.51 8.62-114.68 35.75-97.36 114.32l25.74-27.53h56.78c15.68.0 32.1 3.88 42.93 15.23 23.8 24.87 44.02 52.13 56.61 82.14 6.36 15.08 10.75 30.88 12.69 47.41-5.76-12.48-12.22-24.42-19.47-35.83-12.71-20.09-27.81-38.54-45.45-55.24 6.57 31.14 9.38 62 8.53 92.59-1.05 37.45-7.59 74.48-19.52 111.14 13.27-2.92 26.06-6.8 38.37-11.67 31.16-12.29 58.01-29.11 80.54-50.51 22.52-21.39 39.93-46.64 52.21-75.76 4.93-11.69 8.87-23.76 11.82-36.19l-58.97-83.95 65.11 41.74c.32-5.2.47-10.45.47-15.78v-1.36c0-33.68-6.14-64.94-18.43-93.84zm-138.02-4.41c-9.6 5.57-20.54 8.42-31.63 8.42h-18.98c11.5-17.6 31.33-19.26 53.77-15.91 2.07.3 4.18.66 6.29 1.05-.83.75-1.81 1.49-2.88 2.26-1.88 1.34-4.07 2.73-6.57 4.18z"/><path class="cls-1" d="m253.15 369.21c-3.97 37.82-15.27 73.26-32.7 106.75-11.07 1.19-22.46 1.79-34.13 1.79h-77.83c35.36-28.79 67.42-60.81 96.4-95.79 17.43-21.03 33.74-43.13 49.01-66.27 1.36 18.36 1.07 36.19-.77 53.51z"/><path class="cls-1" d="m151.14 423.68c-19.82 22.63-43.3 40.39-69.85 54.08-7.7-4.28-15.33-9.09-22.87-14.41l-50.3-35.51c36-2.47 71.32-8.54 106.02-17.92 20.86-5.64 41.49-12.48 61.92-20.47-7.5 12.49-15.83 23.88-24.92 34.24z"/></g></g></g></svg>