<svg xmlns="http://www.w3.org/2000/svg" id="Layer_2" data-name="Layer 2" viewBox="0 0 963.41 1045.5"><defs><style>.cls-1 { fill: #e0e0e0; } .cls-2 { fill: #f7f7f7; }</style></defs><g id="Layer_1-2" data-name="Layer 1"><g><path class="cls-2" d="m230.04 860.07V207.59h177.74c40.83.0 78.62 5.87 113.36 17.62 6.41-4.25 12.94-8.11 19.64-11.62 31.96-16.82 66.71-25.02 106.17-25.02 71.15.0 151.43 27.32 242.96 61.19-22.43-36.85-49.46-70.33-81.13-100.4-49.29-46.81-108.04-83.41-176.25-109.78C564.35 13.21 489.4.0 407.76.0H0v908.11h0c74.15.0 147.59-14.4 216.24-42.41l13.78-5.61.02-.02z"/><g><path class="cls-1" d="m923.07 314.39c-3.92-9.2-8.07-18.24-12.45-27.07-153.1-57.08-263.89-97.83-356.83-48.92-18.01 9.43-35.33 22.26-52.19 39.02-171.81 18.86-250.97 78.23-213.07 250.17l56.34-60.26h124.24c34.3.0 70.24 8.5 93.95 33.33 52.09 54.43 96.33 114.07 123.87 179.74 13.91 32.99 23.52 67.59 27.77 103.76-12.61-27.3-26.74-53.44-42.62-78.42-27.81-43.97-60.86-84.35-99.47-120.89 14.38 68.15 20.54 135.68 18.67 202.62-2.28 81.97-16.62 162.98-42.7 243.22 29.04-6.39 57.04-14.89 83.98-25.53 68.19-26.89 126.95-63.71 176.25-110.52 49.29-46.81 87.37-102.08 114.26-165.79 10.78-25.57 19.41-52 25.86-79.2L819.88 465.93l142.5 91.34c.7-11.38 1.03-22.88 1.03-34.53v-2.98c0-73.71-13.45-142.13-40.32-205.37h-.02zm-302.03-9.67c-21.01 12.18-44.94 18.44-69.22 18.44h-41.55c25.16-38.51 68.56-42.15 117.67-34.83 4.52.66 9.14 1.44 13.78 2.28-1.81 1.64-3.98 3.27-6.29 4.95-4.11 2.94-8.91 5.98-14.38 9.14v.02z"/><path class="cls-1" d="m554.02 807.97c-8.67 82.75-33.42 160.33-71.54 233.61-24.22 2.61-49.15 3.92-74.68 3.92H237.49c77.39-63.01 147.55-133.07 210.96-209.62 38.14-46.01 73.84-94.38 107.26-145.01 2.98 40.19 2.34 79.2-1.68 117.11h-.02z"/><path class="cls-1" d="m330.8 927.17c-43.38 49.52-94.77 88.38-152.85 118.33-16.86-9.37-33.56-19.9-50.07-31.55L17.79 936.23c78.77-5.42 156.08-18.69 232.01-39.21 45.64-12.34 90.8-27.3 135.5-44.78-16.41 27.34-34.63 52.27-54.53 74.93h.02z"/></g></g></g></svg>