<?xml version="1.0" encoding="utf-8"?>
<!-- Generator: Adobe Illustrator 27.3.1, SVG Export Plug-In . SVG Version: 6.00 Build 0)  -->
<svg version="1.1" id="Layer_2_00000137816378443237347300000012459703274771274662_"
	 xmlns="http://www.w3.org/2000/svg" xmlns:xlink="http://www.w3.org/1999/xlink" x="0px" y="0px" viewBox="0 0 440.2 477.8"
	 style="enable-background:new 0 0 440.2 477.8;" xml:space="preserve">
<style type="text/css">
	.st0{fill:#00664E;}
	.st1{fill:#00A072;}
</style>
<path class="st0" d="M105.1,393V94.9h81.2c18.7,0,35.9,2.7,51.8,8.1c2.9-1.9,5.9-3.7,9-5.3c14.6-7.7,30.5-11.4,48.5-11.4
	c32.5,0,69.2,12.5,111,28C396.4,97.3,384,82,369.6,68.3c-22.5-21.4-49.4-38.1-80.5-50.2C257.9,6,223.6,0,186.3,0H0v415l0,0
	c33.9,0,67.4-6.6,98.8-19.4L105.1,393L105.1,393z"/>
<g>
	<path class="st1" d="M421.8,143.7c-1.8-4.2-3.7-8.3-5.7-12.4c-70-26.1-120.6-44.7-163.1-22.3c-8.2,4.3-16.1,10.2-23.8,17.8
		c-78.5,8.6-114.7,35.7-97.4,114.3l25.7-27.5h56.8c15.7,0,32.1,3.9,42.9,15.2c23.8,24.9,44,52.1,56.6,82.1
		c6.4,15.1,10.8,30.9,12.7,47.4c-5.8-12.5-12.2-24.4-19.5-35.8c-12.7-20.1-27.8-38.5-45.5-55.2c6.6,31.1,9.4,62,8.5,92.6
		c-1,37.5-7.6,74.5-19.5,111.1c13.3-2.9,26.1-6.8,38.4-11.7c31.2-12.3,58-29.1,80.5-50.5c22.5-21.4,39.9-46.6,52.2-75.8
		c4.9-11.7,8.9-23.8,11.8-36.2l-59-83.9l65.1,41.7c0.3-5.2,0.5-10.4,0.5-15.8v-1.4C440.2,203.8,434.1,172.6,421.8,143.7L421.8,143.7
		z M283.8,139.3c-9.6,5.6-20.5,8.4-31.6,8.4h-19c11.5-17.6,31.3-19.3,53.8-15.9c2.1,0.3,4.2,0.7,6.3,1.1c-0.8,0.8-1.8,1.5-2.9,2.3
		C288.5,136.4,286.3,137.8,283.8,139.3L283.8,139.3z"/>
	<path class="st1" d="M253.1,369.2c-4,37.8-15.3,73.3-32.7,106.8c-11.1,1.2-22.5,1.8-34.1,1.8h-77.8c35.4-28.8,67.4-60.8,96.4-95.8
		c17.4-21,33.7-43.1,49-66.3C255.3,334,255,351.9,253.1,369.2L253.1,369.2z"/>
	<path class="st1" d="M151.1,423.7c-19.8,22.6-43.3,40.4-69.8,54.1c-7.7-4.3-15.3-9.1-22.9-14.4L8.1,427.8c36-2.5,71.3-8.5,106-17.9
		c20.9-5.6,41.5-12.5,61.9-20.5C168.6,401.9,160.2,413.3,151.1,423.7L151.1,423.7z"/>
</g>
</svg>
