<svg width="376" height="57" viewBox="0 0 376 57" fill="none" xmlns="http://www.w3.org/2000/svg">
<g clip-path="url(#clip0_2644_24863)">
<path d="M253.802 56.1422C247.904 56.1422 242.007 56.1422 236.112 56.1422C232.571 56.1422 231.901 55.4471 231.901 51.7859C231.901 41.083 231.901 30.3802 231.901 19.6774C231.901 17.9681 231.821 16.2589 233.761 15.4734C235.701 14.6878 236.844 15.9923 238.01 17.1778C242.731 21.9389 247.533 26.6333 252.207 31.4372C253.453 32.7226 254.227 32.6512 255.441 31.4086C260.162 26.5476 265.025 21.7913 269.821 16.9874C270.969 15.8352 272.116 14.7259 273.929 15.4924C275.742 16.2589 275.751 17.8444 275.746 19.4869C275.728 30.3453 275.728 41.2068 275.746 52.0715C275.746 55.4043 275 56.1375 271.729 56.147C265.752 56.1692 259.776 56.1676 253.802 56.1422ZM253.887 50.3861C258.528 50.3861 263.169 50.3576 267.805 50.3861C269.179 50.3861 270.043 50.1719 270.029 48.4817C269.968 41.6591 270.005 34.8413 270.001 28.0092C270.001 27.376 270.086 26.5809 269.429 26.3143C268.773 26.0476 268.32 26.7428 267.895 27.1665C264.25 30.7706 260.62 34.3985 256.984 38.0122C254.322 40.6593 253.17 40.6784 250.502 38.0122C246.919 34.4747 243.383 30.8658 239.79 27.3141C239.28 26.8094 238.888 25.7287 237.991 26.1429C237.297 26.4666 237.604 27.4379 237.604 28.1235C237.604 34.708 237.675 41.2878 237.552 47.8675C237.51 49.9767 238.383 50.4337 240.21 50.4052C244.766 50.3338 249.327 50.3814 253.887 50.3861Z" fill="#192740"/>
<path d="M69.7878 45.9156C70.5998 45.3681 70.5951 44.4301 70.8264 43.6207C73.1807 35.4825 75.5287 27.3411 77.8704 19.1966C78.0294 18.4225 78.3356 17.6869 78.7722 17.0303C79.1916 16.4881 79.789 16.1145 80.457 15.9767C81.1251 15.8388 81.82 15.9456 82.4169 16.278C83.9938 17.0493 84.3054 18.4443 83.8333 20.1107C81.5702 27.4459 79.3167 34.7858 77.0725 42.1305C75.9111 45.9394 74.7119 49.6911 73.6025 53.4904C73.0643 55.3424 72.1861 56.6803 70.0805 56.7232C68.0834 56.7565 67.2478 55.4472 66.6246 53.738C63.7824 45.9156 60.9025 38.117 58.0698 30.3089C57.7535 29.4423 57.3947 28.5901 56.9792 27.5379C55.9453 28.3759 55.8131 29.4423 55.4826 30.3279C52.6216 38.0503 49.7889 45.7807 46.9845 53.519C46.3471 55.2806 45.5351 56.7279 43.42 56.7232C41.3049 56.7184 40.4787 55.3424 39.9216 53.5047C36.546 42.44 33.1279 31.3944 29.7428 20.3392C29.0629 18.1015 29.705 16.5685 31.4424 16.0876C33.3734 15.5544 34.818 16.4447 35.4696 18.6919C37.7027 26.3715 39.898 34.0653 42.1122 41.7497C42.474 43.2572 43.0939 44.6896 43.9441 45.9822C45.1574 42.6495 46.3896 39.3596 47.5794 36.0412C49.6047 30.3755 51.6018 24.7003 53.6177 19.0299C54.156 17.5112 54.6658 15.9924 56.7148 15.9924C58.7638 15.9924 59.2784 17.5159 59.8214 19.0299C62.8209 27.3776 65.811 35.7238 68.7916 44.0683C69.0465 44.7158 69.0607 45.4966 69.7878 45.9156Z" fill="#192740"/>
<path d="M143.56 44.7919C144.381 43.8397 144.093 42.997 144.098 42.2543C144.098 34.8842 144.098 27.495 144.098 20.1392C144.098 17.3683 145.184 15.9447 147.176 16.0019C149.169 16.059 150.231 17.5254 150.236 20.2344C150.236 31.0896 150.236 41.9464 150.236 52.8048C150.236 54.3759 150.155 55.9185 148.39 56.5136C146.544 57.1421 145.255 56.266 144.169 54.7806C138.189 46.6265 132.201 38.4804 126.205 30.3421C125.879 29.8994 125.563 29.4423 125.223 29.009C124.987 28.7186 124.784 28.2854 124.335 28.3806C123.712 28.5091 123.811 29.0852 123.806 29.5232C123.806 32.3799 123.806 35.2365 123.806 38.0931C123.806 43.0065 123.806 47.9199 123.806 52.8524C123.806 55.2329 122.688 56.6612 120.912 56.7422C119.024 56.8183 117.716 55.3138 117.711 52.8952C117.693 42.0337 117.693 31.1753 117.711 20.3201C117.711 18.6395 117.537 16.8208 119.6 16.1685C121.663 15.5162 122.957 16.797 124.099 18.3633C129.963 26.4 135.847 34.4239 141.752 42.4352C142.29 43.1589 142.875 43.8968 143.56 44.7919Z" fill="#192740"/>
<path d="M0 36.541C0 31.1515 0 25.762 0 20.3534C0 17.1588 1.09059 16.0351 4.24906 16.1304C8.87108 16.2684 13.5356 15.5543 18.1104 16.6065C23.9647 17.9967 27.7038 22.0007 28.327 27.3998C28.955 33.1321 26.3914 37.6122 20.7732 40.3022C19.4748 40.945 19.5929 41.4211 20.3813 42.3447C22.7088 45.1347 24.975 47.9723 27.2695 50.7908C29.158 53.1332 29.3799 54.7044 27.9257 55.9423C26.4716 57.1801 24.8947 56.6945 23.0582 54.3521C20.087 50.5591 17.1221 46.7677 14.1635 42.9779C13.2901 41.8638 7.55388 40.983 6.46801 41.7877C5.85425 42.2638 6.05726 42.9398 6.05254 43.5445C6.05254 46.6392 6.05254 49.7338 6.05254 52.819C6.02894 55.409 4.93835 56.785 3.01683 56.7516C1.09531 56.7183 0.0613752 55.3233 0.0472117 52.7095C0 47.32 0 41.9305 0 36.541ZM6.01949 28.9709C6.01949 30.9515 6.04782 32.9273 6.01949 34.9079C6.01949 35.9411 6.23667 36.5648 7.43585 36.5124C10.3346 36.3791 13.2476 36.7171 16.137 36.2839C20.2113 35.6697 22.4917 33.113 22.5766 29.1042C22.6616 25.0954 20.5088 22.3769 16.4863 21.5913C13.4553 20.9962 10.3866 21.4247 7.32254 21.3009C6.25555 21.2628 6.00533 21.8722 6.01477 22.7958C6.03366 24.8526 6.01949 26.9141 6.02422 28.9709H6.01949Z" fill="#192740"/>
<path d="M154.383 36.184C154.383 30.9468 154.383 25.7096 154.383 20.4963C154.383 17.1207 155.403 16.1161 158.759 16.1304C162.291 16.1304 165.865 15.9019 169.354 16.3209C180.845 17.7016 187.393 26.3191 186.411 38.3788C185.571 48.7246 178.725 55.6281 168.471 56.3089C165.105 56.5327 161.72 56.4708 158.344 56.4517C155.511 56.4517 154.406 55.29 154.383 52.343C154.383 46.9534 154.383 41.5687 154.383 36.184ZM160.44 36.184V44.7538C160.44 51.6526 160.44 51.6859 167.281 51.305C172.762 51.0003 177.28 49.0007 179.296 43.4112C180.977 38.8313 181.001 33.7999 179.363 29.2043C177.993 25.2526 175.113 22.8578 171.1 21.8103C168.268 21.0676 165.341 21.2581 162.442 21.1438C160.903 21.0819 160.379 21.5628 160.412 23.1387C160.52 27.4998 160.459 31.8514 160.454 36.2078L160.44 36.184Z" fill="#192740"/>
<path d="M317.376 35.846C317.376 30.4517 317.376 25.0622 317.376 19.6584C317.376 16.4161 318.438 15.3401 321.592 15.3163C324.817 15.3163 328.041 15.2877 331.266 15.3163C333.792 15.2806 336.294 15.8158 338.588 16.8827C343.097 19.0871 345.552 22.6912 345.67 27.776C345.788 32.8608 343.64 36.6315 339.212 39.0597C336.79 40.388 336.771 40.369 338.555 42.5638C340.746 45.2586 342.965 47.9343 345.137 50.6576C346.591 52.4763 346.614 54.2188 345.137 55.2377C343.413 56.4375 342.049 55.69 340.888 54.2046C337.775 50.2148 334.654 46.2346 331.526 42.2639C330.633 41.1307 324.944 40.3071 323.849 41.1355C323.23 41.6116 323.448 42.2877 323.443 42.8876C323.443 45.9013 323.443 48.915 323.443 51.9335C323.419 54.5188 322.338 55.9423 320.44 55.9566C318.542 55.9709 317.39 54.5759 317.381 52.0192C317.362 46.6297 317.376 41.2402 317.376 35.846ZM323.448 28.114C323.448 30.1708 323.448 32.2228 323.448 34.3034C323.448 35.0556 323.448 35.7888 324.496 35.7317C327.697 35.627 330.926 36.0888 334.099 35.3699C338.083 34.47 339.958 32.0371 339.887 27.9474C339.816 24.1052 337.781 21.6342 333.933 20.8487C330.912 20.2345 327.838 20.6439 324.793 20.5249C323.773 20.4868 323.415 20.9582 323.433 21.9532C323.476 24.0052 323.448 26.062 323.448 28.114Z" fill="#192740"/>
<path d="M314.565 53.5523C314.483 54.1106 314.225 54.6274 313.828 55.0261C313.432 55.4249 312.919 55.6843 312.365 55.7661C311.673 55.972 310.93 55.9122 310.279 55.5984C309.628 55.2846 309.115 54.7389 308.839 54.0664C307.795 51.8526 306.827 49.5911 305.954 47.301C305.482 46.0869 304.854 45.6061 303.527 45.6299C298.806 45.706 294.085 45.687 289.364 45.6299C288.113 45.6299 287.357 45.9298 286.89 47.2296C286.12 49.3863 285.157 51.4812 284.213 53.5713C283.269 55.6614 281.489 56.4279 279.855 55.5757C277.905 54.5283 277.967 52.8857 278.746 51.086C283.593 39.9991 288.437 28.9091 293.278 17.8158C293.915 16.3494 294.656 15.1068 296.474 15.1544C298.155 15.1973 298.896 16.3637 299.495 17.7396C304.261 28.6932 309.032 39.6436 313.81 50.5909C314.321 51.4915 314.582 52.5146 314.565 53.5523V53.5523ZM296.389 24.9288C294.099 30.3088 292.093 35.027 290.096 39.7452C289.727 40.6165 290.162 40.8736 290.964 40.8688C294.576 40.8688 298.192 40.8688 301.823 40.8688C302.862 40.8688 303.046 40.4641 302.659 39.5548C300.652 34.9318 298.679 30.2898 296.389 24.9288V24.9288Z" fill="#192740"/>
<path d="M222.122 53.2951C222.231 55.171 221.504 56.1137 220.134 56.4946C219.416 56.7528 218.627 56.7187 217.933 56.3996C217.239 56.0805 216.696 55.5015 216.419 54.7853C215.404 52.6381 214.445 50.4623 213.643 48.2294C213.124 46.8011 212.288 46.3583 210.81 46.3821C206.254 46.463 201.698 46.4535 197.119 46.3821C195.75 46.3821 194.947 46.7439 194.456 48.0961C193.701 50.1766 192.794 52.2048 191.888 54.2235C190.943 56.3327 189.3 57.1421 187.582 56.4374C185.863 55.7328 185.396 54.1235 186.406 51.8049C191.228 40.6958 196.063 29.6041 200.91 18.5299C201.505 17.173 202.199 15.9685 203.913 15.9257C205.749 15.878 206.514 17.1683 207.132 18.5918C211.979 29.6756 216.815 40.7656 221.641 51.8621C221.836 52.3272 221.997 52.8062 222.122 53.2951ZM203.998 25.681C201.727 31.0563 199.777 35.7078 197.817 40.3451C197.459 41.1925 197.515 41.6972 198.601 41.6925C202.208 41.6925 205.812 41.6925 209.413 41.6925C210.357 41.6925 210.716 41.3497 210.31 40.3974C208.289 35.7078 206.287 31.0372 203.998 25.6763V25.681Z" fill="#192740"/>
<path d="M96.5556 46.4107C94.2753 46.4107 91.995 46.4773 89.7147 46.4107C88.4258 46.3583 87.6987 46.7963 87.2313 48.0294C86.424 50.1767 85.5128 52.3144 84.5591 54.3759C83.6055 56.4374 81.8586 57.2325 80.2015 56.3613C78.2564 55.3234 78.2705 53.7713 79.0873 51.9145C83.9879 40.7609 88.8664 29.5931 93.7229 18.411C94.332 17.0112 95.1393 15.9162 96.8153 15.9352C98.3922 15.9352 99.1759 17.016 99.7424 18.3157C104.693 29.6089 109.632 40.9117 114.557 52.2239C115.308 53.9522 115.096 55.5947 113.141 56.3803C111.328 57.1183 109.879 56.4232 109.067 54.6521C108.066 52.5869 107.169 50.4719 106.38 48.3151C105.837 46.7344 104.922 46.3059 103.378 46.3774C101.107 46.4821 98.8218 46.3774 96.5415 46.3774L96.5556 46.4107ZM96.7162 41.683C98.4441 41.683 100.172 41.683 101.909 41.683C103.076 41.7068 103.491 41.4163 102.943 40.1737C101.097 35.9745 99.3364 31.7467 97.5282 27.5331C97.3488 27.1189 97.3205 26.4619 96.7634 26.4476C96.2063 26.4333 96.1449 27.0618 95.9702 27.476C94.1809 31.6943 92.4341 35.9316 90.5928 40.1261C89.946 41.602 90.5928 41.721 91.7825 41.6877C93.4208 41.6544 95.0685 41.6877 96.7162 41.683V41.683Z" fill="#192740"/>
<path d="M358.299 37.4028C358.299 32.6417 358.2 27.8807 358.351 23.1196C358.412 21.0628 357.69 20.5106 355.787 20.6391C353.677 20.7867 351.538 20.682 349.418 20.6772C347.775 20.6772 346.623 19.9345 346.52 18.2157C346.406 16.378 347.521 15.3591 349.263 15.3591C357.289 15.3083 365.315 15.3083 373.341 15.3591C374.969 15.3591 376.008 16.2209 375.989 18.0205C375.989 19.9535 374.842 20.6677 373.1 20.6772C370.895 20.6772 368.686 20.801 366.49 20.6439C364.682 20.5153 364.248 21.1723 364.262 22.9244C364.342 32.4465 364.3 41.9686 364.29 51.4907C364.29 52.3572 364.403 53.238 364.016 54.0712C363.374 55.4424 362.34 56.1994 360.815 55.9042C359.078 55.5709 358.323 54.333 358.313 52.6429C358.285 48.1199 358.313 43.5969 358.313 39.0786L358.299 37.4028Z" fill="#192740"/>
<path d="M266.856 12.4026C266.912 14.188 266.384 15.602 264.372 15.7591C262.234 15.921 261.601 14.4879 261.341 12.6359C260.822 8.8651 258.589 6.31794 255.322 5.62759C252.234 4.97056 249.317 6.27509 247.438 9.1222C246.755 10.2779 246.369 11.587 246.314 12.931C246.125 14.745 245.223 15.9495 243.264 15.7639C241.423 15.5925 240.828 14.2879 240.819 12.5882C240.781 5.91801 246.762 0.261885 253.641 2.7073e-05C260.52 -0.261831 266.747 5.71329 266.856 12.4026Z" fill="#192740"/>
<path d="M253.885 50.3814C249.324 50.3814 244.763 50.3338 240.193 50.4052C238.366 50.4337 237.493 49.9767 237.535 47.8675C237.658 41.2878 237.573 34.708 237.587 28.1235C237.587 27.4379 237.28 26.4666 237.974 26.1429C238.871 25.7287 239.263 26.8094 239.773 27.3141C243.366 30.8658 246.902 34.4557 250.485 38.0407C253.153 40.6974 254.305 40.6783 256.968 38.0407C260.603 34.4271 264.233 30.7992 267.878 27.1951C268.303 26.7713 268.709 26.0381 269.413 26.3428C270.116 26.6475 269.984 27.4045 269.984 28.0378C269.984 34.8556 269.951 41.6734 270.012 48.5103C270.012 50.21 269.162 50.4147 267.788 50.4147C263.166 50.3576 258.526 50.3861 253.885 50.3814Z" fill="#5FB040"/>
</g>
<defs>
<clipPath id="clip0_2644_24863">
<rect width="375.98" height="56.7517" fill="white"/>
</clipPath>
</defs>
</svg>
