<svg width="450" height="60" viewBox="0 0 450 60" fill="none" xmlns="http://www.w3.org/2000/svg">
<path d="M445.485 6.07643L446.074 5.63471L445.485 5.26661H444.97V6.00281L445.485 6.07643ZM445.043 7.47519H444.602V4.97214H445.559C446.221 4.97214 446.516 5.193 446.516 5.70833C446.516 6.15005 446.221 6.37091 445.853 6.44453L446.589 7.54882H446.074L445.411 6.44453H444.97V7.47519H445.043ZM445.485 4.23595C444.454 4.23595 443.645 5.04576 443.645 6.15005C443.645 7.18073 444.307 8.06415 445.485 8.06415C446.516 8.06415 447.326 7.25434 447.326 6.15005C447.326 5.04576 446.516 4.23595 445.485 4.23595ZM445.485 8.50587C444.16 8.50587 443.203 7.54882 443.203 6.22367C443.203 4.8249 444.307 3.94147 445.485 3.94147C446.663 3.94147 447.841 4.8249 447.841 6.22367C447.841 7.54882 446.737 8.50587 445.485 8.50587ZM429.068 37.2174H431.571V42.9598L437.755 37.2174H441.289L435.62 42.2972L441.583 49.6591H438.123L433.559 43.9168L431.497 45.7573V49.6591H428.994V37.2174H429.068ZM411.325 42.8125H415.743C417.141 42.8125 417.878 42.3708 417.878 40.972C417.878 39.7205 417.068 39.2052 415.743 39.2052H411.325V42.8125ZM408.822 49.6591V37.2174H416.479C419.571 37.2174 420.528 38.6898 420.528 40.6039C420.528 42.2235 419.645 43.2542 418.54 43.6223C420.013 43.9168 420.307 45.242 420.307 47.0088C420.307 47.5978 420.307 48.9965 420.822 49.6591H418.098C417.878 49.291 417.804 48.7021 417.804 47.745C417.804 45.9781 417.583 44.7266 415.669 44.7266H411.325V49.6591H408.822V49.6591ZM393.436 48.0395C396.307 48.0395 397.927 46.199 397.927 43.4015C397.927 40.6776 396.307 38.7634 393.436 38.7634C390.565 38.7634 388.945 40.6776 388.945 43.4015C388.945 46.199 390.565 48.0395 393.436 48.0395ZM393.436 50.0272C388.283 50.0272 386.295 46.9352 386.295 43.4751C386.295 40.015 388.283 36.923 393.436 36.923C398.589 36.923 400.577 40.015 400.577 43.4751C400.577 46.9352 398.589 50.0272 393.436 50.0272ZM371.644 44.9475L366.344 37.2174H369.436L372.896 42.7389L376.356 37.2174H379.448L374.148 44.9475V49.6591H371.571V44.9475H371.644ZM334.319 37.2174H337.043L339.767 46.8616L342.786 37.2174H345.436L348.454 46.8616L351.252 37.2174H353.902L349.853 49.6591H347.129L344.111 40.0886V40.0886L341.092 49.6591H338.368L334.319 37.2174ZM316.651 37.2174H327.178V39.2052H319.227V42.3708H326.884V44.2849H319.227V47.745H327.325V49.7327H316.651V37.2174ZM295.154 37.2174H298.098L305.313 46.5671H305.387V37.2174H307.816V49.6591H304.945L297.73 40.3094V49.6591H295.301V37.2174H295.154ZM416.626 3.72061H441.51V6.88625H421.411V16.1623H440.184V19.3279H421.411V29.4138H441.657V32.5794H416.7V3.72061H416.626ZM365.755 3.72061H370.835L389.902 27.1316H389.976V3.72061H394.467V32.5794H389.24L370.319 9.3893H370.246V32.5794H365.755V3.72061ZM338.589 3.72061H343.375V32.5794H338.589V3.72061ZM295.006 3.72061H299.792V29.4138H318.859V32.5794H295.006V3.72061ZM252.602 3.72061H257.387V29.4138H276.381V32.5794H252.528V3.72061H252.602ZM206.368 3.72061H231.178V6.88625H211.154V16.1623H229.853V19.3279H211.154V29.4138H231.399V32.5794H206.442V3.72061H206.368ZM161.166 19.3279V29.4138H173.166C177.289 29.4138 179.939 27.3524 179.939 24.1868C179.939 20.4322 176.184 19.3279 172.135 19.3279H161.166V19.3279ZM156.454 32.5794V3.72061H169.559C172.724 3.72061 176.921 3.72061 179.129 4.75128C181.485 5.85557 183.326 7.91691 183.326 10.7881C183.326 13.8801 181.338 16.2359 177.951 17.2666V17.3402C182.368 18.0764 184.798 20.7267 184.798 24.334C184.798 28.604 181.043 32.5794 173.902 32.5794H156.454ZM161.166 6.88625V16.1623H170.81C176.258 16.1623 178.467 14.5427 178.467 11.5243C178.467 7.47519 174.933 6.88625 170.81 6.88625H161.166V6.88625ZM124.209 20.7267V32.5058H119.424V20.7267L105.51 3.72061H111.178L122 17.4874L132.528 3.72061H137.976L124.209 20.7267ZM77.6077 7.18072L71.4973 20.6531H83.7181L77.6813 7.18072H77.6077ZM61.0433 32.5794L75.1046 3.72061H80.4053L94.5402 32.5794H89.2396L85.2642 23.8923H70.0249L65.9758 32.5794H61.0433ZM6.12305 3.72061H12.6752L24.0126 27.9414L35.4237 3.72061H41.9758V32.5794H37.485V8.57948H37.4114L26.1476 32.5794H22.0249L10.7611 8.57948H10.6875V32.5794H6.19667V3.72061H6.12305Z" fill="#1F2937"/>
</svg>
