<svg width="133" height="61" viewBox="0 0 133 61" fill="none" xmlns="http://www.w3.org/2000/svg">
<path d="M66.4998 0.762238C61.6013 0.763086 56.782 2.02198 52.4866 4.42273C48.1913 6.82348 44.5585 10.2887 41.9234 14.4985H0L4.17356 18.7534H39.7456C39.0704 20.3548 38.5347 22.0135 38.1447 23.7106H9.0359L13.1585 27.9136H37.4698C37.39 28.7703 37.3467 29.6302 37.3401 30.4908C37.3478 31.2856 37.3867 32.0796 37.4568 32.8712H18.0214L22.144 37.0742H38.0909C38.4605 38.7692 38.9752 40.4279 39.6289 42.0313H27.0064L31.1799 46.2862H41.8379C44.4578 50.545 48.0943 54.0568 52.4073 56.4934C56.7202 58.93 61.5689 60.2118 66.4998 60.2189C71.4308 60.2119 76.2795 58.9301 80.5925 56.4935C84.9056 54.0569 88.5421 50.545 91.1621 46.2862H101.82L105.994 42.0313H93.3711C94.0248 40.4279 94.5395 38.7692 94.9092 37.0742H110.856L114.979 32.8712H95.5432C95.6133 32.0796 95.6522 31.2856 95.6599 30.4908C95.6535 29.6302 95.6103 28.7703 95.5307 27.9136H119.841L123.964 23.7106H94.8554C94.4653 22.0135 93.9296 20.3548 93.2544 18.7534H128.826L133 14.4985H91.0766C88.4415 10.2886 84.8086 6.82336 80.5132 4.42261C76.2177 2.02185 71.3983 0.763002 66.4998 0.762238V0.762238ZM66.4998 4.7919C69.8101 4.7919 73.0879 5.45662 76.1463 6.74811C79.2046 8.0396 81.9834 9.93258 84.3242 12.3189C86.6649 14.7053 88.5217 17.5383 89.7885 20.6563C91.0553 23.7742 91.7073 27.116 91.7073 30.4908C91.7073 33.8657 91.0553 37.2074 89.7885 40.3254C88.5217 43.4433 86.6649 46.2763 84.3242 48.6627C81.9834 51.0491 79.2046 52.942 76.1463 54.2335C73.0879 55.525 69.8101 56.1897 66.4998 56.1897C59.8143 56.1897 53.4027 53.4822 48.6753 48.6627C43.948 43.8432 41.2922 37.3066 41.2922 30.4908C41.2922 23.675 43.948 17.1384 48.6753 12.3189C53.4027 7.49946 59.8143 4.7919 66.4998 4.7919V4.7919ZM46.4471 23.8301V37.1511H49.172V26.6654L52.0463 37.1511H54.8706L57.7545 26.6654V37.1511H60.4798V23.8301H56.0796L53.4733 32.9167L50.8373 23.8301H46.4471ZM63.3238 23.8301V37.1511H66.2572V23.8301H63.3238ZM69.0714 23.8301V37.1511H71.7968V28.4645L77.6539 37.1511H80.5973V23.8301H77.872V32.7258L71.926 23.8301H69.0714ZM83.6196 23.8301V37.1511H86.5529V23.8301H83.6196Z" fill="#120A08"/>
</svg>
